<svg width="999" height="881" viewBox="0 0 999 881" fill="none" xmlns="http://www.w3.org/2000/svg">
<g clip-path="url(#clip0_1_906)">
<path fill-rule="evenodd" clip-rule="evenodd" d="M664.31 303.84C465.26 311.85 282.33 329.01 165.65 146.87C70.3899 -1.83 -111.82 234.92 94.2299 347.83C123.2 363.71 97.3799 614.28 232.76 666.29C329.89 703.6 543.87 631.64 618.78 777.31C715.31 965.03 949.3 860.45 991.18 744.1C1030.26 635.53 915.61 293.72 664.31 303.83" fill="#FAE3C0"/>
<path fill-rule="evenodd" clip-rule="evenodd" d="M161.85 702.61C152.36 701.99 144.16 709.18 143.54 718.67C142.92 728.16 150.11 736.36 159.6 736.98C169.09 737.6 177.29 730.41 177.91 720.92C178.53 711.43 171.34 703.23 161.85 702.61Z" fill="#6FA1B6"/>
<path fill-rule="evenodd" clip-rule="evenodd" d="M125.06 708.67C119.51 708.31 114.71 712.51 114.35 718.07C113.99 723.62 118.19 728.42 123.75 728.78C129.3 729.14 134.1 724.94 134.46 719.38C134.82 713.83 130.62 709.03 125.06 708.67Z" fill="#6FA1B6"/>
<path fill-rule="evenodd" clip-rule="evenodd" d="M113.53 672.23C111.62 672.1 109.98 673.55 109.85 675.46C109.72 677.37 111.17 679.01 113.08 679.14C114.99 679.26 116.63 677.82 116.76 675.91C116.89 674 115.44 672.36 113.53 672.23Z" fill="#6FA1B6"/>
<path d="M808.7 502.82C808.73 503.98 809.7 504.9 810.87 504.87C812.03 504.84 812.95 503.87 812.92 502.7C811.56 453.2 805.68 407.05 796.62 363.27C793.99 350.54 791.09 338.02 787.95 325.67L816 280.99C816.15 281.03 816.31 281.07 816.46 281.11C821.77 282.37 827.18 278.76 828.54 273.03C829.9 267.31 826.69 261.65 821.38 260.39C816.07 259.13 810.66 262.74 809.3 268.47C808.35 272.48 809.64 276.46 812.33 278.92L786.51 320.05C783.37 308 780 296.11 776.44 284.38C776.53 284.2 776.6 284 776.63 283.78L787.43 218.2C787.61 218.12 787.78 218.02 787.94 217.89L813.84 196.56C814.7 197.11 815.66 197.53 816.71 197.78C822.02 199.04 827.43 195.42 828.78 189.7C830.14 183.98 826.93 178.32 821.62 177.06C816.31 175.8 810.9 179.42 809.54 185.14C808.82 188.18 809.39 191.2 810.87 193.55L788.44 212.02L796.24 164.64C796.26 164.5 796.27 164.35 796.27 164.21C800.96 164.39 805.35 160.97 806.56 155.89C807.92 150.17 804.71 144.51 799.4 143.25C794.09 141.99 788.68 145.6 787.32 151.33C786.15 156.25 788.36 161.12 792.38 163.19C792.24 163.42 792.14 163.68 792.09 163.96L773.71 275.54C769.77 262.93 765.61 250.49 761.27 238.17C761.16 237.86 760.99 237.59 760.76 237.37C762.73 235.9 764.25 233.69 764.88 231.02C766.24 225.3 763.03 219.64 757.72 218.38C752.41 217.12 747 220.73 745.64 226.46C744.28 232.18 747.49 237.84 752.8 239.1C754.28 239.45 755.77 239.42 757.18 239.07C757.2 239.23 757.23 239.39 757.29 239.55C770.53 277.16 782.12 315.98 790.95 356.84L750.25 320.78C750.1 320.65 749.94 320.55 749.78 320.46C750.41 319.44 750.9 318.3 751.19 317.06C752.55 311.34 749.34 305.68 744.03 304.42C738.72 303.16 733.31 306.78 731.95 312.5C730.59 318.22 733.8 323.88 739.11 325.14C741.93 325.81 744.78 325.1 747.04 323.43C747.15 323.61 747.28 323.78 747.45 323.92L791.76 363.18C791.95 363.35 792.16 363.47 792.38 363.56L792.49 364.08C801.49 407.6 807.33 453.5 808.69 502.79" fill="#00A2E8"/>
<path d="M826.85 356.63C826.53 357.15 826.69 357.83 827.21 358.15C827.73 358.47 828.41 358.31 828.73 357.79L854.17 316.71C854.49 316.19 854.33 315.51 853.81 315.19C853.29 314.87 852.61 315.03 852.29 315.55L826.85 356.63Z" fill="#00A2E8"/>
<path fill-rule="evenodd" clip-rule="evenodd" d="M905.39 441.01C912.93 481.5 898.77 510.56 858.68 525.96C858.68 525.96 808.72 494.3 835.37 420.69C818.46 371.08 825.17 329.55 845.11 292.55C846.05 243.25 873.97 213.05 924.51 198.87C868.06 228.01 942.19 261.34 901.85 286.94C935.63 343.56 932.95 394.29 905.39 441.02" fill="#E0ECFE"/>
<path d="M851.13 469.41L837 440.47C836.6 439.65 835.61 439.31 834.79 439.71C833.97 440.11 833.63 441.1 834.03 441.92L851.55 477.8C852.39 493.04 853.67 508.25 855.33 523.44C855.43 524.35 856.25 525 857.16 524.9C858.07 524.8 858.72 523.98 858.62 523.07C855.39 493.61 853.63 464.08 853.66 434.45L853.78 434.34L881.14 406.33C881.78 405.68 881.77 404.63 881.12 403.99C880.47 403.35 879.42 403.36 878.78 404.01L853.69 429.71C853.77 419.32 854.07 408.92 854.6 398.51C854.73 398.18 854.75 397.81 854.65 397.47C855.01 390.7 855.47 383.92 856.03 377.14C856.31 373.73 856.62 370.31 856.96 366.9L883.95 339.27C884.59 338.62 884.58 337.57 883.93 336.93C883.28 336.29 882.23 336.3 881.59 336.95L857.51 361.61C858.56 351.76 859.84 341.89 861.35 332.02C861.89 331.51 862.03 330.68 861.66 330.01C863.13 320.62 864.81 311.22 866.72 301.81L884.43 279.31C885 278.59 884.87 277.55 884.15 276.99C883.43 276.42 882.39 276.55 881.83 277.27L868.24 294.54C872.88 272.96 878.72 251.31 885.87 229.6C886.15 228.73 885.68 227.8 884.82 227.52C883.95 227.24 883.02 227.71 882.74 228.57C874.82 252.62 868.5 276.58 863.63 300.46C863.5 300.72 863.45 301 863.46 301.27C861.81 309.43 860.32 317.58 859 325.72L846.24 305.2C845.76 304.43 844.74 304.19 843.97 304.67C843.2 305.15 842.96 306.17 843.44 306.94L858.22 330.7C855.84 346.12 854.03 361.5 852.75 376.86C852.32 382.07 851.95 387.27 851.63 392.47L839.08 372.29C838.6 371.52 837.58 371.28 836.81 371.76C836.04 372.24 835.8 373.26 836.28 374.03L851.31 398.2C850.08 422 850.08 445.73 851.14 469.41" fill="#002F40"/>
<path fill-rule="evenodd" clip-rule="evenodd" d="M932.01 480.36C937.19 472.38 947.85 470.11 955.83 475.29C963.81 480.47 966.08 491.13 960.9 499.11C955.72 507.09 945.06 509.36 937.08 504.18C929.1 499 926.83 488.34 932.01 480.36Z" fill="#6FA1B6"/>
<path fill-rule="evenodd" clip-rule="evenodd" d="M958.87 454.49C961.9 449.82 968.14 448.49 972.81 451.52C977.48 454.55 978.81 460.79 975.78 465.46C972.75 470.13 966.51 471.46 961.84 468.43C957.17 465.4 955.84 459.16 958.87 454.49Z" fill="#6FA1B6"/>
<path fill-rule="evenodd" clip-rule="evenodd" d="M936.56 423.46C937.6 421.86 939.74 421.4 941.35 422.44C942.95 423.48 943.41 425.62 942.37 427.23C941.33 428.83 939.19 429.29 937.58 428.25C935.98 427.21 935.52 425.07 936.56 423.46Z" fill="#6FA1B6"/>
<path d="M360.78 675.66C361.69 676.38 361.85 677.71 361.12 678.62C360.4 679.53 359.07 679.69 358.16 678.96C319.3 648.27 285.82 615.96 256.15 582.53C247.52 572.81 239.22 562.99 231.2 553.1L178.62 548.87C178.56 549.02 178.51 549.17 178.44 549.31C176.27 554.32 170.14 556.49 164.75 554.16C159.35 551.83 156.73 545.87 158.9 540.86C161.07 535.85 167.2 533.68 172.6 536.01C176.38 537.65 178.8 541.06 179.16 544.68L227.57 548.58C219.79 538.85 212.28 529.05 204.99 519.18C204.79 519.14 204.59 519.08 204.4 518.98L145.38 488.43C145.21 488.53 145.03 488.6 144.83 488.65L112.25 496.66C112.18 497.68 111.94 498.7 111.51 499.69C109.34 504.7 103.21 506.87 97.82 504.54C92.42 502.21 89.8 496.25 91.97 491.24C94.14 486.23 100.27 484.06 105.67 486.39C108.54 487.63 110.62 489.89 111.62 492.49L139.84 485.55L97.19 463.47C97.06 463.4 96.94 463.32 96.83 463.24C94.17 467.1 88.8 468.58 84.01 466.51C78.61 464.18 75.99 458.22 78.16 453.21C80.33 448.2 86.46 446.03 91.86 448.36C96.5 450.37 99.09 455.05 98.34 459.5C98.61 459.52 98.88 459.6 99.13 459.73L199.56 511.72C191.81 501.02 184.32 490.24 177.05 479.41C176.86 479.13 176.75 478.83 176.71 478.52C174.35 479.22 171.68 479.11 169.16 478.02C163.76 475.69 161.14 469.73 163.31 464.72C165.48 459.71 171.61 457.54 177.01 459.87C182.41 462.2 185.03 468.16 182.86 473.17C182.25 474.57 181.34 475.75 180.22 476.67C180.34 476.78 180.45 476.91 180.54 477.05C202.77 510.15 226.96 542.66 254.43 574.17L249.86 519.98C249.84 519.79 249.86 519.6 249.89 519.41C248.7 519.31 247.49 519.02 246.32 518.51C240.92 516.18 238.3 510.22 240.47 505.21C242.64 500.2 248.77 498.03 254.16 500.36C259.56 502.69 262.18 508.65 260.01 513.66C258.86 516.32 256.59 518.18 253.9 518.99C253.98 519.18 254.03 519.39 254.05 519.61L259.02 578.6C259.04 578.85 259.02 579.09 258.96 579.32L259.31 579.72C288.81 612.96 322.11 645.08 360.8 675.64" fill="#00A2E8"/>
<path d="M232.74 602.8C233.35 602.85 233.8 603.39 233.74 603.99C233.69 604.6 233.15 605.05 232.55 604.99L184.42 600.82C183.81 600.77 183.36 600.23 183.42 599.63C183.47 599.02 184.01 598.57 184.61 598.63L232.74 602.8Z" fill="#00A2E8"/>
<path fill-rule="evenodd" clip-rule="evenodd" d="M253.42 716.2C281.36 746.46 313.12 752.48 349.44 729.55C349.44 729.55 353.93 670.57 279 647.92C249.35 604.7 212.05 585.25 170.46 579.1C130.38 550.37 89.4799 554.7 47.8899 586.73C105 558.91 87.3899 638.25 132.02 621.23C157.21 682.16 199.47 710.35 253.41 716.19" fill="#E0ECFE"/>
<path d="M310.76 694.89L296.01 666.26C295.59 665.45 295.91 664.45 296.72 664.03C297.53 663.61 298.53 663.93 298.95 664.74L317.24 700.24C328.95 710.03 340.38 720.14 351.56 730.56C352.23 731.18 352.26 732.23 351.63 732.9C351.01 733.57 349.96 733.6 349.29 732.98C327.61 712.78 304.99 693.7 281.22 676.02L281.06 676.05L242.25 681.23C241.35 681.35 240.51 680.72 240.39 679.81C240.27 678.9 240.9 678.07 241.81 677.95L277.41 673.2C269.04 667.05 260.52 661.07 251.86 655.28C251.52 655.19 251.21 654.98 250.99 654.7C245.35 650.94 239.64 647.26 233.87 643.65C230.97 641.84 228.04 640.04 225.11 638.27L186.82 643.38C185.92 643.5 185.08 642.87 184.96 641.96C184.84 641.06 185.47 640.22 186.38 640.1L220.55 635.54C212.03 630.49 203.36 625.62 194.54 620.93C193.81 621.06 193.06 620.68 192.75 619.98C184.35 615.55 175.81 611.27 167.13 607.18L138.51 607.92C137.6 607.94 136.84 607.22 136.82 606.31C136.8 605.4 137.52 604.64 138.43 604.61L160.4 604.04C140.32 594.85 119.49 586.59 97.8101 579.34C96.9501 579.05 96.4801 578.11 96.7701 577.25C97.0601 576.39 98.0001 575.92 98.8601 576.21C122.87 584.24 145.85 593.5 167.91 603.88C168.19 603.93 168.45 604.06 168.66 604.23C176.19 607.78 183.61 611.47 190.92 615.27L182.1 592.77C181.77 591.92 182.18 590.96 183.03 590.63C183.88 590.3 184.83 590.71 185.17 591.56L195.38 617.61C209.16 624.92 222.58 632.67 235.65 640.83C240.08 643.6 244.47 646.41 248.83 649.27L240.16 627.15C239.83 626.3 240.24 625.34 241.09 625.01C241.94 624.68 242.9 625.09 243.23 625.94L253.61 652.44C273.42 665.68 292.44 679.87 310.79 694.88" fill="#002F40"/>
<path fill-rule="evenodd" clip-rule="evenodd" d="M548.08 189.99C720.46 189.99 860.2 329.67 860.2 501.98C860.2 674.29 720.46 813.97 548.08 813.97C375.7 813.97 235.96 674.29 235.96 501.98C235.96 329.67 375.7 189.99 548.08 189.99Z" fill="#BAC3FD"/>
<path fill-rule="evenodd" clip-rule="evenodd" d="M846.26 409.54C855.31 438.75 860.19 469.8 860.19 501.99C860.19 530.71 856.29 558.52 849.02 584.93C846.35 577.91 825.95 525.66 806.16 517.09C784.93 507.89 764.41 477.47 746.73 481.71C729.04 485.95 748.15 500.11 748.15 500.11C748.15 500.11 767.96 500.82 773.62 506.48C779.28 512.14 794.85 528.41 779.28 534.78C763.71 541.15 746.02 535.49 740.36 529.83C734.7 524.17 712.06 513.56 709.23 491.62C706.4 469.69 712.06 465.44 712.06 465.44C712.06 465.44 701.44 451.29 708.52 444.21C715.6 437.13 721.26 432.18 719.13 427.23C717.01 422.28 714.89 415.2 707.81 407.42C700.73 399.64 690.12 393.27 688.71 401.76C687.3 410.25 676.68 408.13 676.68 408.13L671.73 427.94C671.73 427.94 661.82 429.35 654.04 413.08C646.26 396.81 645.55 389.02 637.77 390.44C629.99 391.85 625.03 389.73 618.67 386.19C612.3 382.65 608.06 377.7 596.03 381.24C584 384.78 568.44 388.31 571.97 377.7C575.51 367.09 581.17 369.92 584.71 360.01C588.25 350.1 590.37 344.44 603.1 339.49C615.84 334.54 613.01 321.09 627.86 326.05C642.72 331 646.26 331.71 658.28 328.17C670.31 324.63 678.8 337.37 680.21 328.88C681.63 320.39 661.81 306.95 661.81 306.95C661.81 306.95 638.46 311.9 642 305.53C645.54 299.16 656.15 294.21 667.47 293.5C678.79 292.79 719.83 316.85 725.49 315.43C731.15 314.01 726.2 304.81 737.52 308.35C748.84 311.89 763.7 331.7 763.7 331.7L786.34 341.6C786.34 341.6 825.38 375.76 846.25 409.53" fill="#808BEF"/>
<path fill-rule="evenodd" clip-rule="evenodd" d="M347.48 740.99C279.3 683.76 235.95 597.94 235.95 501.98C235.95 482.3 237.79 463.06 241.28 444.39C247.76 440.81 253.63 438.71 255.83 441.13C264.45 450.6 246.47 457.23 251.14 462.84C263.57 477.81 243.82 483.89 251.08 489.05L268.8 501.64C269.9 502.42 282.85 482.17 306.36 478.91C322.3 476.69 348.9 488.26 353.93 510.9C359.73 536.99 373.55 553.18 381.28 558.01C389.01 562.84 416.06 548.35 418.96 581.2C421.86 614.05 405.43 629.51 410.26 641.11C415.09 652.7 413.88 659.9 397.45 663.77C381.02 667.63 380.36 691.36 380.36 691.36C380.36 691.36 353.55 702.59 350.65 714.18C348.09 724.44 347.56 738 347.47 741" fill="#808BEF"/>
<path fill-rule="evenodd" clip-rule="evenodd" d="M537.56 438.16C537.56 438.16 513.68 452.79 508.29 457.42C502.9 462.04 494.43 462.04 492.89 481.3C491.35 500.56 499.05 511.34 496.74 518.27C494.43 525.2 492.12 536.76 498.28 542.15C504.44 547.54 517.54 541.38 525.24 530.6C532.94 519.82 543.73 522.13 549.12 525.98C554.51 529.83 594.57 596.08 588.4 611.48C582.24 626.88 576.85 627.65 579.16 636.13C581.47 644.6 594.56 659.24 588.4 661.55C582.24 663.86 571.45 672.33 575.3 677.72C579.15 683.11 585.31 700.83 585.31 700.83L586.08 718.54C586.08 718.54 589.16 735.49 615.35 750.12C641.54 764.76 638.46 736.26 640.77 727.01C643.08 717.77 645.39 682.33 654.64 672.32C663.88 662.31 679.29 657.69 677.75 646.9C676.21 636.11 661.58 620.71 675.44 616.86C689.3 613.01 721.66 605.3 733.21 599.91C744.76 594.52 760.17 572.95 752.47 569.1C744.77 565.25 737.84 559.09 717.04 557.55C696.24 556.01 699.33 545.23 697.78 527.51C696.24 509.79 690.08 478.21 690.08 478.21C690.08 478.21 684.69 458.95 663.89 452.02C643.09 445.09 630.77 436.61 611.51 422.75C592.25 408.89 593.79 413.51 580.7 417.36C567.61 421.21 537.57 438.16 537.57 438.16" fill="#808BEF"/>
<path fill-rule="evenodd" clip-rule="evenodd" d="M671.1 708.74C671.1 708.74 696.36 691.6 699.07 681.68C701.78 671.76 711.7 680.78 719.82 670.85C727.94 660.93 722.52 648.3 741.47 656.42C760.42 664.54 749.59 695.21 738.76 696.11C727.93 697.01 727.03 692.5 716.21 698.82C705.38 705.13 696.36 722.28 683.73 718.67L671.1 715.06V708.74Z" fill="#808BEF"/>
<path fill-rule="evenodd" clip-rule="evenodd" d="M293.96 796.2C365.53 847.03 503.45 609.85 516.38 760.32C520.5 808.28 455.85 840.34 380.88 839.04C321.15 838.01 181.76 784.95 196.99 714.89C201.42 701.61 210.55 712.28 222.86 732.35C213.91 706.68 208.35 683.28 211.79 674.96C231.61 651.04 222.39 745.37 293.96 796.19" fill="#808BEF"/>
<path d="M443.1 375.5C442.47 373.71 443.41 371.75 445.2 371.13C446.99 370.5 448.95 371.45 449.57 373.23L458.37 398.33C460.99 397.39 464.25 395.99 467.73 394.5C474.37 391.65 481.75 388.48 487.83 387.17C495.35 385.55 501.11 386.6 502.55 393.31C502.95 395.16 501.78 396.99 499.93 397.39C498.08 397.79 496.25 396.62 495.85 394.77C495.49 393.11 492.86 393.11 489.29 393.88C485.56 394.68 481.07 396.36 476.56 398.22C480.34 397.96 483.97 397.81 487.05 398.03L487.31 398.06C493.85 398.59 498.15 400.8 497.73 406.59C497.59 408.48 495.94 409.9 494.05 409.76C492.16 409.62 490.74 407.97 490.88 406.08C490.93 405.43 489.26 405.08 486.78 404.89H486.53C482.72 404.6 477.61 405 472.5 405.41L472.14 405.44C476.77 408.15 480.57 411.63 482.53 416.87C483.2 418.65 482.29 420.63 480.52 421.29C478.74 421.96 476.76 421.05 476.1 419.28C473.63 412.67 465.5 409.47 457.39 406.28L456.23 405.82L456.08 405.79H455.95L440.44 413.6L441.79 418.24C442.32 420.06 441.27 421.96 439.45 422.49C437.63 423.02 435.73 421.97 435.2 420.15L433.12 413C432.52 411.38 433.22 409.54 434.8 408.74L451.76 400.2L443.1 375.51V375.5Z" fill="#4A0B0E"/>
<path d="M386.66 374.1C387.05 372.25 388.88 371.06 390.73 371.45C392.58 371.84 393.77 373.67 393.37 375.52L387.85 401.54C390.57 402.1 394.09 402.59 397.84 403.13C404.99 404.14 412.95 405.27 418.82 407.31C426.08 409.83 430.46 413.73 428.21 420.2C427.59 421.99 425.64 422.94 423.85 422.33C422.06 421.71 421.11 419.76 421.72 417.97C422.28 416.37 420.03 415 416.58 413.8C412.97 412.55 408.26 411.65 403.45 410.89C406.82 412.63 410 414.39 412.51 416.18L412.72 416.34C418.04 420.19 420.56 424.32 417.2 429.04C416.1 430.58 413.95 430.94 412.41 429.84C410.87 428.74 410.51 426.59 411.61 425.05C411.99 424.52 410.75 423.36 408.72 421.9L408.51 421.76C405.4 419.54 400.82 417.23 396.25 414.92L395.92 414.75C398.47 419.47 399.91 424.42 398.86 429.92C398.51 431.78 396.71 433.01 394.84 432.65C392.98 432.3 391.75 430.5 392.11 428.63C393.43 421.69 388.15 414.75 382.87 407.8L382.12 406.81L382 406.7L381.89 406.63L364.58 405.25L363.32 409.92C362.83 411.75 360.94 412.83 359.12 412.34C357.29 411.85 356.21 409.96 356.7 408.14L358.63 400.95C358.96 399.26 360.51 398.05 362.27 398.18L381.2 399.69L386.63 374.1H386.66Z" fill="#520C10"/>
<path fill-rule="evenodd" clip-rule="evenodd" d="M493.45 59.49L476.85 12.83L520.13 0.140015C529.07 9.94001 499.97 49.24 493.45 59.49Z" fill="#BAC3FD"/>
<path d="M495.79 29.57C495.09 30.08 494.11 29.92 493.6 29.22C493.09 28.52 493.25 27.54 493.95 27.03C499.2 23.22 503.97 19.1 508.3 14.71C512.65 10.3 516.56 5.60002 520.07 0.650017C520.57 -0.0499826 521.54 -0.219983 522.24 0.280017C522.94 0.780017 523.11 1.75002 522.61 2.45002C518.99 7.56002 514.97 12.38 510.52 16.9C506.05 21.43 501.14 25.66 495.77 29.56" fill="#E78F2B"/>
<path fill-rule="evenodd" clip-rule="evenodd" d="M544.89 85.57L502.31 94.21L415.14 95.02C326.45 120.28 240.3 109.45 154.97 86.98C159 117.88 190.4 161.62 224.21 154.4C227.99 153.59 229.03 194.93 271.81 193.46C275.12 193.35 274.27 216.94 293.99 226.05C310.57 233.72 321.35 225.85 339.06 229.83L334.43 269.22C326.66 299.75 290.2 287.85 229.76 249.03C221.04 243.43 215.89 238.24 214.35 247.55L207.97 286.21C254.39 366.34 314.87 376.05 382.39 347.93L381.84 384.9C380.05 389.16 388.3 393.46 395.4 386.82C403.54 379.21 415.72 357.29 417.18 331.28L440.11 383.49C445.58 390.56 455.87 379.19 456.96 376.63C461.7 365.45 459.79 330.3 453.64 305.35C486.8 285.33 509.13 255.27 517.4 217.16L540.91 216.07L544.88 85.57H544.89Z" fill="#E0ECFE"/>
<path fill-rule="evenodd" clip-rule="evenodd" d="M213.95 250.06L212.53 258.69L256.65 290.66C258.4 291.93 260.84 291.54 262.11 289.79C263.38 288.04 262.99 285.6 261.24 284.33L213.95 250.06Z" fill="#F7E9D4"/>
<path fill-rule="evenodd" clip-rule="evenodd" d="M211.14 267.08L209.61 276.34L253.67 317.42C255.25 318.89 257.72 318.8 259.19 317.22C260.66 315.64 260.57 313.17 258.99 311.7L211.13 267.08H211.14Z" fill="#F7E9D4"/>
<path fill-rule="evenodd" clip-rule="evenodd" d="M510.26 92.59L503.54 93.95L503.6 94.2C510.06 117.16 513.83 138.97 515.93 157.84C519.14 186.74 518.4 208.7 517.33 217.52L517.41 217.15L524.3 216.83C525.31 206.89 525.84 185.1 522.73 157.06C520.61 137.93 516.79 115.85 510.26 92.58" fill="#F7E9D4"/>
<path fill-rule="evenodd" clip-rule="evenodd" d="M332.71 228.84C334.74 229.02 336.84 229.33 339.06 229.83L338.41 235.39C344.03 206.61 352.81 162.43 386.34 133.78C387.78 132.55 387.94 130.39 386.71 128.95C385.48 127.51 383.32 127.35 381.88 128.58C348.56 157.06 338.6 199.23 332.71 228.85" fill="#F7E9D4"/>
<path fill-rule="evenodd" clip-rule="evenodd" d="M272.26 193.61C273.15 194.23 273.77 196.81 274.78 200.31C282 199.73 288.71 197.96 295.04 195.38C302.36 192.4 309.12 188.39 315.58 183.92C317.14 182.85 317.53 180.71 316.46 179.15C315.39 177.59 313.25 177.2 311.69 178.27C305.56 182.51 299.21 186.29 292.47 189.03C286.18 191.59 279.49 193.27 272.25 193.6" fill="#F7E9D4"/>
<path fill-rule="evenodd" clip-rule="evenodd" d="M224.6 154.48C225.43 154.96 226.21 157.49 227.45 161.05C235.05 160.07 244.16 158.17 253.29 155.73C264.75 152.66 276.31 148.7 284.99 144.59C286.7 143.78 287.43 141.74 286.63 140.03C285.82 138.32 283.78 137.59 282.07 138.39C273.81 142.3 262.66 146.11 251.54 149.09C241.83 151.69 232.21 153.65 224.61 154.48M219.78 155.05C220.82 154.96 221.87 154.82 222.92 154.64C222.22 154.7 221.53 154.75 220.87 154.8C220.48 154.83 220.12 154.91 219.78 155.05Z" fill="#F7E9D4"/>
<path fill-rule="evenodd" clip-rule="evenodd" d="M506.99 107.86C490.19 115.8 468.57 116.41 457.76 99.94C442.8 112.88 425.44 122.15 405.14 114.99C410.37 81.04 382.37 19.94 477.82 11.6L498.26 67.44L507 107.87L506.99 107.86Z" fill="#0C6394"/>
<path fill-rule="evenodd" clip-rule="evenodd" d="M595.81 84.57C645.21 99.04 673.52 150.82 659.05 200.21C644.58 249.61 592.8 277.92 543.41 263.45C494.01 248.98 465.7 197.2 480.17 147.81C494.64 98.41 546.42 70.1 595.81 84.57Z" fill="#7D9FFC"/>
<path d="M640.09 135.16C630.12 117.11 613.23 102.81 591.79 96.53C570.35 90.25 548.41 93.18 530.28 103C512.15 112.82 497.82 129.52 491.59 150.78C485.36 172.04 488.41 193.84 498.38 211.88C508.35 229.93 525.24 244.23 546.68 250.51C568.12 256.79 590.06 253.86 608.19 244.05C626.32 234.23 640.65 217.53 646.88 196.27C653.11 175.01 650.06 153.22 640.09 135.17M592.25 94.97C614.12 101.38 631.34 115.97 641.52 134.38C651.69 152.8 654.81 175.03 648.45 196.72C642.09 218.41 627.48 235.45 608.98 245.47C590.48 255.49 568.1 258.48 546.23 252.07C524.36 245.66 507.14 231.07 496.96 212.66C486.79 194.24 483.68 172.01 490.03 150.32C496.38 128.63 511 111.59 529.5 101.57C548 91.55 570.38 88.56 592.24 94.97H592.25Z" fill="#BAC3FD"/>
<path d="M564.93 218C558.64 217.02 552.96 214.93 547.89 211.71C542.81 208.49 538.57 204.5 535.15 199.74C531.73 194.98 529.28 189.7 527.78 183.89C526.29 178.08 526.02 172.11 526.97 165.97C527.92 159.83 529.99 154.22 533.17 149.14C536.35 144.06 540.29 139.77 544.99 136.27C549.69 132.77 554.94 130.25 560.75 128.72C566.56 127.19 572.61 126.91 578.9 127.89C584.6 128.77 589.92 130.67 594.86 133.56C599.8 136.46 604.19 140.23 608.04 144.86L588.12 157.49C584.34 153.84 580.12 151.65 575.44 150.92C572.37 150.44 569.43 150.59 566.62 151.35C563.81 152.11 561.29 153.37 559.08 155.12C556.86 156.87 555 159 553.49 161.49C551.98 163.99 551 166.7 550.54 169.62C550.08 172.62 550.18 175.53 550.87 178.37C551.55 181.21 552.69 183.78 554.28 186.08C555.87 188.38 557.87 190.34 560.27 191.95C562.68 193.56 565.42 194.6 568.48 195.08C571.99 195.63 575.38 195.33 578.66 194.19C581.94 193.05 584.94 191.2 587.66 188.63L603.47 206.12C598.08 210.97 592.06 214.44 585.41 216.51C578.76 218.59 571.93 219.08 564.92 217.99" fill="#BAC3FD"/>
<path d="M440.99 61.69C440.96 64.92 438.32 67.52 435.09 67.5C431.86 67.47 429.26 64.83 429.28 61.6C429.35 53.05 433.25 46.38 438.65 42.35C441.5 40.22 444.79 38.83 448.17 38.26C451.65 37.68 455.23 37.98 458.56 39.25V39.27C464.14 41.41 468.93 46.16 471.23 53.96C472.14 57.06 470.37 60.32 467.26 61.23C464.16 62.14 460.9 60.37 459.99 57.26C458.84 53.36 456.74 51.09 454.39 50.19V50.21C453.02 49.69 451.54 49.57 450.1 49.81C448.56 50.06 447.03 50.73 445.67 51.74C442.97 53.76 441.02 57.19 440.98 61.67" fill="#F7E9D4"/>
<path fill-rule="evenodd" clip-rule="evenodd" d="M382.4 347.93L381.85 384.9C380.06 389.16 388.31 393.46 395.41 386.82C403.55 379.21 415.73 357.29 417.19 331.28L440.12 383.49C445.59 390.56 455.88 379.19 456.97 376.63C461.71 365.45 460.44 329.48 454.3 304.53C432.27 323.29 408.28 336.6 382.41 347.92" fill="#0C6394"/>
<path fill-rule="evenodd" clip-rule="evenodd" d="M626.13 101.02C696.55 123.61 731.73 185.28 715.47 215.98L646.54 230.94C628.8 234.3 606.96 235.09 609.32 209.9L626.13 101.02Z" fill="#E0ECFE"/>
<path fill-rule="evenodd" clip-rule="evenodd" d="M690.81 224.26L682.58 226.05C682.62 225.69 682.72 225.33 682.88 224.99L698.17 192.59C698.97 190.87 701.02 190.14 702.73 190.94C704.45 191.74 705.18 193.79 704.38 195.5L690.8 224.26H690.81Z" fill="#F7E9D4"/>
<path fill-rule="evenodd" clip-rule="evenodd" d="M645.29 233.26C642.88 233.44 640.5 233.48 638.21 233.35C638.16 232.79 638.25 232.21 638.49 231.66L664.82 172.1C665.59 170.37 667.61 169.58 669.35 170.35C671.08 171.12 671.87 173.14 671.1 174.88L645.3 233.26H645.29Z" fill="#F7E9D4"/>
<path fill-rule="evenodd" clip-rule="evenodd" d="M355.67 656.97C370.96 656.97 383.35 659.78 383.35 663.24C383.35 666.7 370.96 669.51 355.67 669.51C340.38 669.51 327.99 666.7 327.99 663.24C327.99 659.78 340.38 656.97 355.67 656.97Z" fill="#B02E36"/>
<path fill-rule="evenodd" clip-rule="evenodd" d="M362.33 661.32L359.49 612.42L352.94 613.18C348.82 613.66 347.72 613.17 344.47 615.9C331.94 626.42 331.28 648.13 344.32 658.67C347.92 661.58 348.48 661.74 352.81 661.61L362.33 661.32Z" fill="#E78F2B"/>
<path fill-rule="evenodd" clip-rule="evenodd" d="M359.54 612.42C370.44 612.42 379.27 623.42 379.27 637C379.27 650.58 370.44 661.58 359.54 661.58C348.64 661.58 339.81 650.57 339.81 637C339.81 623.43 348.64 612.42 359.54 612.42Z" fill="#BAC3FD"/>
<path d="M360.13 652.07C358.32 652.26 356.64 652.03 355.08 651.36C353.51 650.68 352.15 649.67 351.01 648.32C349.87 646.97 349 645.35 348.4 643.48C347.81 641.61 347.58 639.6 347.71 637.45C347.84 635.32 348.32 633.29 349.13 631.4C349.94 629.52 350.98 627.86 352.25 626.44C353.5 625.03 354.93 623.93 356.52 623.12C358.09 622.32 359.74 621.91 361.47 621.89C363.02 621.87 364.49 622.18 365.87 622.82C367.24 623.46 368.49 624.39 369.62 625.61C368.02 627.29 366.41 628.98 364.77 630.7C363.66 629.77 362.45 629.32 361.16 629.37C360.31 629.4 359.51 629.62 358.75 630.04C357.99 630.46 357.32 631.02 356.74 631.73C356.16 632.44 355.69 633.25 355.33 634.17C354.97 635.09 354.75 636.05 354.7 637.05C354.65 638.08 354.76 639.04 355.03 639.93C355.3 640.82 355.7 641.6 356.21 642.25C356.72 642.9 357.35 643.4 358.07 643.76C358.79 644.11 359.59 644.25 360.47 644.18C361.46 644.1 362.39 643.75 363.26 643.13C364.12 642.52 364.88 641.71 365.54 640.68C367.12 642.19 368.69 643.69 370.26 645.17C368.98 647.14 367.48 648.73 365.75 649.93C364.87 650.54 363.97 651.02 363.03 651.38C362.09 651.74 361.12 651.98 360.11 652.08" fill="#7D9FFC"/>
<path fill-rule="evenodd" clip-rule="evenodd" d="M304.69 563.51C323.08 563.51 337.99 566.89 337.99 571.05C337.99 575.21 323.08 578.59 304.69 578.59C286.3 578.59 271.39 575.21 271.39 571.05C271.39 566.89 286.3 563.51 304.69 563.51Z" fill="#B02E36"/>
<path fill-rule="evenodd" clip-rule="evenodd" d="M312.71 568.74L309.29 509.92L301.41 510.84C296.46 511.42 295.13 510.82 291.22 514.11C276.14 526.77 275.36 552.89 291.04 565.56C295.36 569.06 296.04 569.26 301.25 569.1L312.7 568.75L312.71 568.74Z" fill="#E78F2B"/>
<path fill-rule="evenodd" clip-rule="evenodd" d="M309.35 509.92C322.46 509.92 333.08 523.16 333.08 539.49C333.08 555.82 322.45 569.06 309.35 569.06C296.25 569.06 285.61 555.82 285.61 539.49C285.61 523.16 296.24 509.92 309.35 509.92Z" fill="#BAC3FD"/>
<path d="M310.07 557.62C307.89 557.85 305.87 557.57 303.99 556.76C302.1 555.95 300.47 554.73 299.1 553.1C297.73 551.47 296.68 549.53 295.97 547.28C295.25 545.03 294.98 542.61 295.14 540.03C295.3 537.46 295.87 535.03 296.85 532.74C297.82 530.47 299.08 528.48 300.6 526.77C302.11 525.08 303.82 523.75 305.73 522.77C307.62 521.81 309.61 521.31 311.69 521.28C313.56 521.26 315.32 521.63 316.99 522.4C318.64 523.17 320.14 524.28 321.5 525.75C319.57 527.77 317.63 529.81 315.66 531.88C314.32 530.76 312.87 530.22 311.32 530.28C310.3 530.32 309.33 530.59 308.42 531.09C307.51 531.59 306.7 532.27 306.01 533.12C305.32 533.97 304.75 534.95 304.31 536.06C303.87 537.17 303.62 538.32 303.55 539.52C303.48 540.75 303.62 541.91 303.94 542.99C304.26 544.06 304.74 544.99 305.36 545.78C305.98 546.56 306.73 547.17 307.6 547.59C308.47 548.02 309.43 548.19 310.48 548.1C311.67 548 312.79 547.58 313.83 546.84C314.87 546.11 315.78 545.13 316.58 543.9C318.48 545.71 320.37 547.52 322.25 549.31C320.71 551.68 318.91 553.59 316.83 555.03C315.78 555.76 314.68 556.35 313.56 556.78C312.43 557.21 311.26 557.5 310.05 557.63" fill="#7D9FFC"/>
<path fill-rule="evenodd" clip-rule="evenodd" d="M627.24 532.79C646.06 532.79 661.31 536.25 661.31 540.51C661.31 544.77 646.06 548.23 627.24 548.23C608.42 548.23 593.17 544.77 593.17 540.51C593.17 536.25 608.42 532.79 627.24 532.79Z" fill="#B02E36"/>
<path fill-rule="evenodd" clip-rule="evenodd" d="M635.44 538.14L631.94 477.94L623.88 478.88C618.81 479.47 617.45 478.86 613.45 482.23C598.02 495.18 597.22 521.91 613.26 534.88C617.69 538.46 618.37 538.66 623.71 538.5L635.43 538.14H635.44Z" fill="#E78F2B"/>
<path fill-rule="evenodd" clip-rule="evenodd" d="M632.01 477.95C645.42 477.95 656.3 491.5 656.3 508.21C656.3 524.92 645.43 538.47 632.01 538.47C618.59 538.47 607.72 524.92 607.72 508.21C607.72 491.5 618.59 477.95 632.01 477.95Z" fill="#BAC3FD"/>
<path d="M632.74 526.76C630.51 527 628.44 526.71 626.52 525.88C624.58 525.05 622.92 523.8 621.52 522.14C620.12 520.47 619.04 518.48 618.31 516.18C617.58 513.88 617.3 511.4 617.46 508.76C617.62 506.13 618.21 503.64 619.21 501.3C620.2 498.98 621.49 496.94 623.05 495.19C624.59 493.46 626.35 492.1 628.3 491.1C630.23 490.11 632.27 489.6 634.4 489.58C636.31 489.56 638.12 489.94 639.82 490.73C641.51 491.51 643.05 492.66 644.44 494.16C642.47 496.22 640.48 498.31 638.46 500.43C637.09 499.28 635.61 498.73 634.02 498.79C632.97 498.83 631.98 499.1 631.05 499.62C630.11 500.13 629.29 500.83 628.58 501.7C627.87 502.57 627.29 503.58 626.84 504.71C626.39 505.84 626.13 507.03 626.07 508.25C626 509.51 626.14 510.7 626.47 511.8C626.8 512.9 627.29 513.85 627.93 514.65C628.56 515.45 629.33 516.07 630.22 516.51C631.11 516.95 632.1 517.12 633.17 517.03C634.39 516.93 635.53 516.5 636.6 515.74C637.66 514.99 638.6 513.99 639.41 512.73C641.36 514.58 643.29 516.43 645.22 518.26C643.65 520.68 641.8 522.64 639.67 524.12C638.59 524.87 637.48 525.47 636.33 525.91C635.17 526.35 633.97 526.64 632.74 526.78" fill="#7D9FFC"/>
<path fill-rule="evenodd" clip-rule="evenodd" d="M793.64 439.28C810.18 439.28 823.58 442.32 823.58 446.06C823.58 449.8 810.18 452.84 793.64 452.84C777.1 452.84 763.7 449.8 763.7 446.06C763.7 442.32 777.1 439.28 793.64 439.28Z" fill="#B02E36"/>
<path fill-rule="evenodd" clip-rule="evenodd" d="M800.84 443.99L797.77 391.1L790.69 391.93C786.24 392.45 785.04 391.91 781.53 394.87C767.97 406.25 767.27 429.73 781.37 441.13C785.26 444.27 785.86 444.45 790.55 444.31L800.85 443.99H800.84Z" fill="#E78F2B"/>
<path fill-rule="evenodd" clip-rule="evenodd" d="M797.82 391.1C809.61 391.1 819.16 403 819.16 417.69C819.16 432.38 809.61 444.28 797.82 444.28C786.03 444.28 776.48 432.38 776.48 417.69C776.48 403 786.03 391.1 797.82 391.1Z" fill="#BAC3FD"/>
<path d="M798.47 433.99C796.51 434.2 794.69 433.94 793.01 433.22C791.31 432.49 789.84 431.39 788.61 429.93C787.38 428.47 786.44 426.72 785.79 424.69C785.15 422.67 784.9 420.49 785.04 418.17C785.18 415.86 785.7 413.67 786.58 411.62C787.45 409.58 788.58 407.79 789.95 406.25C791.31 404.73 792.85 403.53 794.56 402.65C796.26 401.78 798.05 401.34 799.92 401.31C801.6 401.29 803.19 401.63 804.68 402.32C806.16 403.01 807.52 404.01 808.74 405.33C807.01 407.14 805.26 408.98 803.49 410.84C802.29 409.83 800.98 409.35 799.59 409.4C798.67 409.43 797.8 409.68 796.98 410.13C796.16 410.58 795.43 411.19 794.81 411.95C794.19 412.71 793.68 413.6 793.28 414.59C792.89 415.59 792.66 416.63 792.6 417.7C792.54 418.81 792.66 419.85 792.95 420.82C793.24 421.79 793.67 422.62 794.23 423.33C794.79 424.04 795.46 424.58 796.24 424.96C797.02 425.34 797.89 425.49 798.83 425.42C799.9 425.33 800.91 424.95 801.84 424.29C802.77 423.63 803.59 422.75 804.31 421.64C806.02 423.27 807.72 424.89 809.41 426.5C808.03 428.63 806.41 430.35 804.53 431.65C803.58 432.31 802.6 432.83 801.59 433.22C800.57 433.61 799.52 433.86 798.44 433.98" fill="#7D9FFC"/>
<path fill-rule="evenodd" clip-rule="evenodd" d="M695.37 354.02C711.91 354.02 725.31 357.06 725.31 360.8C725.31 364.54 711.91 367.58 695.37 367.58C678.83 367.58 665.43 364.54 665.43 360.8C665.43 357.06 678.83 354.02 695.37 354.02Z" fill="#B02E36"/>
<path fill-rule="evenodd" clip-rule="evenodd" d="M702.57 358.72L699.5 305.83L692.42 306.66C687.97 307.18 686.77 306.65 683.26 309.6C669.7 320.98 669 344.46 683.1 355.86C686.99 359 687.59 359.18 692.28 359.04L702.58 358.72H702.57Z" fill="#E78F2B"/>
<path fill-rule="evenodd" clip-rule="evenodd" d="M699.55 305.83C711.34 305.83 720.89 317.73 720.89 332.42C720.89 347.11 711.33 359.01 699.55 359.01C687.77 359.01 678.21 347.11 678.21 332.42C678.21 317.73 687.76 305.83 699.55 305.83Z" fill="#BAC3FD"/>
<path d="M700.2 348.72C698.24 348.93 696.42 348.67 694.74 347.95C693.04 347.22 691.57 346.12 690.34 344.66C689.11 343.2 688.17 341.45 687.52 339.42C686.88 337.4 686.63 335.22 686.77 332.9C686.91 330.59 687.43 328.4 688.31 326.35C689.18 324.31 690.31 322.52 691.68 320.99C693.04 319.47 694.58 318.27 696.29 317.39C697.99 316.52 699.78 316.08 701.65 316.05C703.33 316.03 704.92 316.37 706.41 317.06C707.89 317.75 709.24 318.75 710.47 320.07C708.74 321.88 706.99 323.72 705.22 325.58C704.02 324.57 702.71 324.09 701.32 324.14C700.4 324.17 699.53 324.42 698.71 324.86C697.89 325.31 697.16 325.92 696.54 326.69C695.92 327.45 695.41 328.34 695.01 329.33C694.62 330.32 694.39 331.37 694.33 332.44C694.27 333.55 694.39 334.59 694.68 335.56C694.97 336.53 695.4 337.36 695.96 338.07C696.52 338.77 697.19 339.32 697.97 339.7C698.75 340.08 699.62 340.23 700.56 340.16C701.63 340.07 702.64 339.69 703.57 339.03C704.5 338.37 705.32 337.49 706.04 336.38C707.75 338.01 709.45 339.63 711.14 341.24C709.76 343.37 708.14 345.09 706.26 346.39C705.31 347.05 704.33 347.57 703.32 347.96C702.3 348.35 701.25 348.6 700.17 348.72" fill="#7D9FFC"/>
<path fill-rule="evenodd" clip-rule="evenodd" d="M717.27 687.48C733.16 687.48 746.05 690.4 746.05 694C746.05 697.6 733.17 700.52 717.27 700.52C701.37 700.52 688.49 697.6 688.49 694C688.49 690.4 701.37 687.48 717.27 687.48Z" fill="#B02E36"/>
<path fill-rule="evenodd" clip-rule="evenodd" d="M724.2 692L721.25 641.17L714.45 641.96C710.17 642.46 709.02 641.95 705.64 644.79C692.61 655.73 691.93 678.3 705.48 689.25C709.22 692.27 709.8 692.44 714.31 692.3L724.21 692H724.2Z" fill="#E78F2B"/>
<path fill-rule="evenodd" clip-rule="evenodd" d="M721.3 641.17C732.63 641.17 741.81 652.61 741.81 666.73C741.81 680.85 732.63 692.29 721.3 692.29C709.97 692.29 700.79 680.85 700.79 666.73C700.79 652.61 709.97 641.17 721.3 641.17Z" fill="#BAC3FD"/>
<path d="M721.92 682.39C720.04 682.59 718.29 682.35 716.67 681.65C715.04 680.95 713.63 679.89 712.44 678.49C711.25 677.08 710.35 675.4 709.73 673.46C709.11 671.52 708.88 669.43 709.01 667.19C709.15 664.97 709.64 662.87 710.49 660.89C711.33 658.93 712.42 657.21 713.73 655.73C715.03 654.27 716.51 653.12 718.16 652.27C719.79 651.44 721.51 651.01 723.31 650.98C724.92 650.96 726.45 651.28 727.89 651.95C729.32 652.61 730.61 653.58 731.79 654.85C730.13 656.59 728.45 658.36 726.74 660.15C725.58 659.18 724.33 658.72 722.99 658.77C722.11 658.8 721.27 659.03 720.48 659.47C719.69 659.91 718.99 660.49 718.4 661.22C717.8 661.96 717.31 662.8 716.93 663.76C716.55 664.72 716.33 665.72 716.28 666.75C716.22 667.82 716.34 668.82 716.62 669.74C716.9 670.67 717.31 671.47 717.85 672.15C718.39 672.83 719.03 673.35 719.79 673.72C720.54 674.09 721.37 674.23 722.28 674.16C723.31 674.07 724.28 673.71 725.18 673.07C726.08 672.44 726.87 671.59 727.55 670.53C729.19 672.1 730.83 673.66 732.45 675.2C731.12 677.24 729.56 678.9 727.76 680.15C726.85 680.78 725.91 681.29 724.94 681.66C723.96 682.03 722.95 682.28 721.91 682.39" fill="#7D9FFC"/>
</g>
<defs>
<clipPath id="clip0_1_906">
<rect width="998.67" height="880.23" fill="white"/>
</clipPath>
</defs>
</svg>
