<svg width="1088" height="905" viewBox="0 0 1088 905" fill="none" xmlns="http://www.w3.org/2000/svg">
<g clip-path="url(#clip0_1_1214)">
<path fill-rule="evenodd" clip-rule="evenodd" d="M445.5 172.69C367.65 348.63 290.72 508.45 82.35 523.48C-87.76 535.75 29.13 799.55 219.96 676.75C246.79 659.48 447.52 796.94 554.08 706.04C630.53 640.82 719.97 426.05 878.14 429.66C1081.95 434.31 1064.07 177.64 984.65 88.45C910.54 5.21003 562.68 -92.14 445.5 172.69Z" fill="#FAE3C0"/>
<path d="M341.83 590.86C351.67 585.27 371.99 572.01 398.78 554.54C501.85 487.31 700.21 357.94 771.3 358.9L771.22 365.67C702.19 364.74 504.96 493.38 402.47 560.22C375.57 577.76 355.17 591.07 345.18 596.75L341.83 590.85V590.86Z" fill="#BAC3FD"/>
<path d="M934.06 424.44C934.21 425.34 935.07 425.95 935.97 425.79C936.87 425.64 937.48 424.78 937.32 423.88C930.86 385.58 921.26 350.37 909.44 317.35C906.01 307.75 902.39 298.34 898.6 289.09L915.51 251.32C915.63 251.34 915.76 251.35 915.88 251.36C920.14 251.76 923.95 248.36 924.38 243.77C924.81 239.18 921.7 235.13 917.44 234.73C913.18 234.33 909.37 237.73 908.94 242.32C908.64 245.54 910.08 248.49 912.43 250.11L896.86 284.88C893.1 275.86 889.19 267 885.15 258.27C885.2 258.12 885.23 257.95 885.23 257.78L886.46 205.66C886.59 205.58 886.71 205.48 886.82 205.36L904.61 185.97C905.34 186.31 906.13 186.53 906.97 186.6C911.23 187 915.04 183.6 915.47 179.01C915.9 174.42 912.79 170.37 908.53 169.97C904.27 169.57 900.46 172.97 900.03 177.56C899.8 180 900.57 182.28 901.98 183.95L886.57 200.75L887.46 163.09C887.46 162.98 887.46 162.86 887.43 162.75C891.09 162.38 894.13 159.24 894.51 155.16C894.94 150.57 891.83 146.52 887.57 146.12C883.31 145.72 879.5 149.12 879.07 153.71C878.7 157.66 880.95 161.2 884.29 162.37C884.2 162.56 884.16 162.78 884.15 163L882.05 251.68C877.61 242.32 873.02 233.1 868.31 224.01C868.19 223.78 868.02 223.59 867.83 223.44C869.2 222.08 870.14 220.2 870.34 218.06C870.77 213.47 867.66 209.42 863.4 209.02C859.14 208.62 855.33 212.02 854.9 216.61C854.47 221.2 857.58 225.25 861.84 225.65C863.03 225.76 864.18 225.58 865.24 225.15C865.27 225.27 865.32 225.4 865.38 225.51C879.77 253.28 893.01 282.17 904.33 312.95L868.78 289.38C868.65 289.3 868.52 289.23 868.38 289.19C868.76 288.33 869.01 287.39 869.11 286.4C869.54 281.81 866.43 277.76 862.17 277.36C857.91 276.96 854.1 280.36 853.67 284.95C853.24 289.54 856.35 293.59 860.61 293.99C862.88 294.2 865.01 293.34 866.58 291.8C866.68 291.93 866.81 292.04 866.95 292.14L905.66 317.8C905.82 317.91 906 317.98 906.18 318.03L906.32 318.42C918.06 351.24 927.61 386.26 934.04 424.4" fill="#00A2E8"/>
<path d="M205.51 680.42C205.84 681.28 205.42 682.24 204.57 682.58C203.71 682.91 202.75 682.49 202.41 681.64C188.11 645.26 178.13 609.92 171.19 575.31C169.17 565.25 167.41 555.26 165.88 545.32L131.71 521.52C131.61 521.6 131.51 521.68 131.41 521.75C127.94 524.31 122.9 523.35 120.14 519.61C117.39 515.87 117.97 510.77 121.44 508.22C124.91 505.66 129.95 506.62 132.71 510.36C134.64 512.98 134.93 516.27 133.74 518.89L165.2 540.8C163.76 531.07 162.54 521.4 161.5 511.77C161.38 511.66 161.27 511.54 161.18 511.4L133.08 467.09C132.93 467.09 132.77 467.07 132.61 467.02L107.2 459.53C106.74 460.2 106.18 460.8 105.49 461.3C102.02 463.86 96.98 462.9 94.22 459.16C91.47 455.42 92.05 450.32 95.52 447.77C98.99 445.21 104.03 446.17 106.79 449.91C108.25 451.89 108.77 454.26 108.42 456.43L130.42 462.92L110.12 430.91C110.06 430.81 110.01 430.71 109.97 430.61C106.62 432.19 102.37 431.06 99.93 427.74C97.18 424 97.76 418.9 101.23 416.35C104.7 413.79 109.74 414.75 112.5 418.49C114.87 421.7 114.77 425.92 112.5 428.67C112.67 428.79 112.83 428.95 112.95 429.14L160.76 504.53C159.73 494.15 158.91 483.83 158.25 473.54C158.23 473.28 158.28 473.03 158.37 472.8C156.48 472.34 154.7 471.2 153.42 469.46C150.67 465.72 151.25 460.62 154.72 458.06C158.19 455.5 163.23 456.46 165.99 460.2C168.74 463.94 168.16 469.04 164.69 471.59C163.72 472.3 162.63 472.74 161.5 472.92C161.54 473.04 161.56 473.17 161.57 473.31C163.57 504.72 167.14 536.51 173.34 568.92L191.77 530.15C191.84 530.01 191.92 529.89 192.01 529.77C191.24 529.23 190.53 528.55 189.93 527.74C187.18 524 187.76 518.9 191.23 516.35C194.7 513.79 199.74 514.75 202.5 518.49C205.25 522.23 204.67 527.33 201.2 529.89C199.36 531.25 197.07 531.61 194.92 531.1C194.9 531.26 194.85 531.43 194.77 531.59L174.7 573.8C174.62 573.98 174.5 574.14 174.37 574.27L174.45 574.68C181.35 609.07 191.29 644.23 205.52 680.45" fill="#00A2E8"/>
<path fill-rule="evenodd" clip-rule="evenodd" d="M407.47 336.38L393.91 327.79C393.18 318.43 396.74 304.25 400.67 295.5C408.72 279.1 417.82 286.66 407.9 308.75C421.65 301.25 424.92 287.42 430.51 273.68C441.13 276.98 432.22 290.09 429.35 297.44L436.61 281.08C438.03 279.47 442.82 283.96 439.07 299.92C437.6 306.18 440.52 286.76 445.11 291.94C447.29 317.16 430.94 330.36 407.48 336.39" fill="#FF8F69"/>
<path fill-rule="evenodd" clip-rule="evenodd" d="M638.14 270.18C657 331.96 751.46 309.75 715.9 257.59C697.24 285.78 674.52 284.9 648.07 257.59C645.65 248.52 637.58 236.32 630.97 229.37C617.93 216.58 611.86 226.73 628.55 244.27C613.09 241.76 605.41 229.8 595.58 218.7C586.65 225.34 599.42 234.75 604.57 240.72L592.29 227.7C590.42 226.66 587.39 232.47 596.23 246.29C599.69 251.7 590.49 234.36 587.88 240.76C594.2 265.27 614 272.29 638.14 270.19" fill="#FF8F69"/>
<path fill-rule="evenodd" clip-rule="evenodd" d="M510.55 134.33C575.05 134.33 627.34 186.62 627.34 251.12C627.34 315.62 575.05 367.91 510.55 367.91C446.05 367.91 393.76 315.62 393.76 251.12C393.76 186.62 446.05 134.33 510.55 134.33Z" fill="#7D9FFC"/>
<path fill-rule="evenodd" clip-rule="evenodd" d="M440.1 353.15L426.54 344.56C425.81 335.2 429.37 321.02 433.3 312.26C441.35 295.86 450.45 303.42 440.53 325.51C454.28 318.01 457.55 304.18 463.14 290.44C473.76 293.74 464.85 306.85 461.98 314.2L469.65 298.15C471.07 296.54 474.3 299.57 470.55 315.53C469.08 321.79 473.14 303.51 477.73 308.69C479.91 333.91 463.56 347.11 440.1 353.14" fill="#FF8F69"/>
<path fill-rule="evenodd" clip-rule="evenodd" d="M189.98 811.52L143.87 790.24L158.06 757.3L206.2 775.03L189.98 811.52Z" fill="#FF8F69"/>
<mask id="mask0_1_1214" style="mask-type:luminance" maskUnits="userSpaceOnUse" x="143" y="757" width="64" height="55">
<path d="M189.98 811.52L143.87 790.24L158.06 757.3L206.2 775.03L189.98 811.52Z" fill="white"/>
</mask>
<g mask="url(#mask0_1_1214)">
<path fill-rule="evenodd" clip-rule="evenodd" d="M213.31 763.54L156.06 759.78L203.93 782.31L213.31 763.54Z" fill="#7D9FFC"/>
</g>
<path fill-rule="evenodd" clip-rule="evenodd" d="M412.61 789.03L369.24 805.85L354.53 758.76L401.57 748.1L412.61 789.03Z" fill="#FF8F69"/>
<mask id="mask1_1_1214" style="mask-type:luminance" maskUnits="userSpaceOnUse" x="354" y="748" width="59" height="58">
<path d="M412.61 789.03L369.24 805.85L354.53 758.76L401.57 748.1L412.61 789.03Z" fill="white"/>
</mask>
<g mask="url(#mask1_1_1214)">
<path fill-rule="evenodd" clip-rule="evenodd" d="M403.67 736.77L356.25 766.33L409.39 755.06L403.67 736.77Z" fill="#7D9FFC"/>
</g>
<path fill-rule="evenodd" clip-rule="evenodd" d="M323.76 246.5C267.9 208.02 288.22 265.85 281.66 282.96C281.66 282.96 329.34 316.93 331.36 281.97C346.99 268.83 324.6 273.79 323.76 246.5Z" fill="#FF8F69"/>
<mask id="mask2_1_1214" style="mask-type:luminance" maskUnits="userSpaceOnUse" x="281" y="233" width="56" height="65">
<path d="M323.76 246.5C267.9 208.02 288.22 265.85 281.66 282.96C281.66 282.96 329.34 316.93 331.36 281.97C346.99 268.83 324.6 273.79 323.76 246.5Z" fill="white"/>
</mask>
<g mask="url(#mask2_1_1214)">
<path fill-rule="evenodd" clip-rule="evenodd" d="M294.08 273.73C301.87 273.73 308.19 280.34 308.19 288.48C308.19 296.62 301.87 303.23 294.08 303.23C286.29 303.23 279.97 296.62 279.97 288.48C279.97 280.34 286.29 273.73 294.08 273.73Z" fill="#BAC3FD"/>
</g>
<path fill-rule="evenodd" clip-rule="evenodd" d="M278.69 280.92L306.53 296.17L302.48 325.05C299.04 308.74 290.38 298.29 276.13 294.14L278.69 280.92Z" fill="#FF8F69"/>
<mask id="mask3_1_1214" style="mask-type:luminance" maskUnits="userSpaceOnUse" x="276" y="280" width="31" height="46">
<path d="M278.69 280.92L306.53 296.17L302.48 325.05C299.04 308.74 290.38 298.29 276.13 294.14L278.69 280.92Z" fill="white"/>
</mask>
<g mask="url(#mask3_1_1214)">
<path fill-rule="evenodd" clip-rule="evenodd" d="M309.19 285.43L284.6 282.16L304.27 307.16L309.19 285.43Z" fill="#7D9FFC"/>
</g>
<path fill-rule="evenodd" clip-rule="evenodd" d="M322.94 247.13C313.44 240.96 295.98 232.39 295.53 242.23C292.74 302.54 263.21 294.48 239.14 337.21C228.28 334.49 208.51 322.96 206.34 312.51C205.91 310.44 217 302.27 221.11 297.29C222.82 295.22 203.25 309.97 202.19 307.46C199.97 302.17 198.43 296.41 197.26 290.32C260.47 283.06 239.81 244.8 268.02 219.13C291.67 200.72 317.85 228.42 342.51 231.8C350.62 243.79 336.62 253.88 322.94 247.12" fill="#621014"/>
<path fill-rule="evenodd" clip-rule="evenodd" d="M263.97 305.79C274.05 314.97 287.53 322.17 301.98 330.62C304.18 306.13 288.64 297.85 278.16 293.63L263.97 305.79Z" fill="#808BEF"/>
<path fill-rule="evenodd" clip-rule="evenodd" d="M297.92 449.71L297.74 449.69C297.46 449.02 297.19 448.35 296.92 447.68L296.79 449.58L227.49 441.6L195.57 616.93L188.48 618.96L188.99 631.63L144.4 743.11C165.75 768.97 194.5 777.56 228.01 775.03C242.05 740.22 268.97 691.46 285.82 653.61L336.46 765.4C365.07 766.55 389.1 759.02 415 738.54C396.71 693.49 390.08 636.78 371.79 591.74C351.05 540.65 319.02 500.85 297.93 450.12V449.7L297.92 449.71Z" fill="#448EA6"/>
<mask id="mask4_1_1214" style="mask-type:luminance" maskUnits="userSpaceOnUse" x="144" y="441" width="271" height="335">
<path d="M297.92 449.71L297.74 449.69C297.46 449.02 297.19 448.35 296.92 447.68L296.79 449.58L227.49 441.6L195.57 616.93L188.48 618.96L188.99 631.63L144.4 743.11C165.75 768.97 194.5 777.56 228.01 775.03C242.05 740.22 268.97 691.46 285.82 653.61L336.46 765.4C365.07 766.55 389.1 759.02 415 738.54C396.71 693.49 390.08 636.78 371.79 591.74C351.05 540.65 319.02 500.85 297.93 450.12V449.7L297.92 449.71Z" fill="white"/>
</mask>
<g mask="url(#mask4_1_1214)">
<path d="M195.21 615.37L216.44 613.96" stroke="#2B6E7E" stroke-width="4.25" stroke-miterlimit="22.93" stroke-linecap="round"/>
</g>
<path fill-rule="evenodd" clip-rule="evenodd" d="M193.02 808.99L140.83 786.19C123.77 799.79 112.62 816.34 106.37 835.34C146.57 860 185.76 892.77 231.53 904.76C271.39 854.13 207.53 845.06 202.39 832.29L193.02 808.98V808.99Z" fill="#808BEF"/>
<mask id="mask5_1_1214" style="mask-type:luminance" maskUnits="userSpaceOnUse" x="106" y="786" width="139" height="119">
<path d="M193.02 808.99L140.83 786.19C123.77 799.79 112.62 816.34 106.37 835.34C146.57 860 185.76 892.77 231.53 904.76C271.39 854.13 207.53 845.06 202.39 832.29L193.02 808.98V808.99Z" fill="white"/>
</mask>
<g mask="url(#mask5_1_1214)">
<path d="M111.01 823.6C149.95 853.98 194.55 881.52 239.16 897.74" stroke="#F3EFEC" stroke-width="5.67" stroke-miterlimit="22.93" stroke-linecap="round"/>
</g>
<path fill-rule="evenodd" clip-rule="evenodd" d="M416.28 784.45L363.41 805.65C361.14 827.34 358.51 846.4 367.68 864.18C413.46 852.83 470.89 848.4 511.55 824.19C503.43 760.27 452.17 799.42 439.47 794.12L416.28 784.45Z" fill="#808BEF"/>
<mask id="mask6_1_1214" style="mask-type:luminance" maskUnits="userSpaceOnUse" x="361" y="784" width="151" height="81">
<path d="M416.28 784.45L363.41 805.65C361.14 827.34 358.51 846.4 367.68 864.18C413.46 852.83 470.89 848.4 511.55 824.19C503.43 760.27 452.17 799.42 439.47 794.12L416.28 784.45Z" fill="white"/>
</mask>
<g mask="url(#mask6_1_1214)">
<path d="M361.6 851.76C411.11 841.85 464.87 833.35 508.01 811.4" stroke="#F3EFEC" stroke-width="5.67" stroke-miterlimit="22.93" stroke-linecap="round"/>
</g>
<path fill-rule="evenodd" clip-rule="evenodd" d="M413 347.59C421.96 352.98 430.04 358.6 435.62 366.69L443.22 358.46C437.35 350.1 429.89 343.02 419.97 337.7L413 347.59Z" fill="#621014"/>
<path fill-rule="evenodd" clip-rule="evenodd" d="M317.7 256.78C318.71 256.78 319.54 257.61 319.54 258.62V262.67C319.54 263.68 318.71 264.51 317.7 264.51C316.69 264.51 315.86 263.68 315.86 262.67V258.62C315.86 257.61 316.69 256.78 317.7 256.78Z" fill="#621014"/>
<path fill-rule="evenodd" clip-rule="evenodd" d="M304.42 250.46C303.58 258.62 318.79 248.64 318.5 249.08C315.62 246.52 310.97 246.89 304.42 250.46Z" fill="#621014"/>
<path fill-rule="evenodd" clip-rule="evenodd" d="M286.4 422.55L228.09 441.36C243.14 465.19 275.11 461.74 303.33 466.75L286.4 422.55Z" fill="#2B6E7E"/>
<path fill-rule="evenodd" clip-rule="evenodd" d="M217.85 436.03C210.47 381.66 230.8 340.23 263.96 304.78C333.28 332.19 309.67 380.91 346.56 380.79C366.83 385.69 391.66 337.38 412.94 345.32C428.3 358.14 439.86 365.26 441.38 377.8C446.81 422.49 374.32 463.3 313.11 443.62C279.39 455.46 247.51 453.91 217.84 436.02" fill="#BAC3FD"/>
<mask id="mask7_1_1214" style="mask-type:luminance" maskUnits="userSpaceOnUse" x="216" y="304" width="226" height="148">
<path d="M217.85 436.03C210.47 381.66 230.8 340.23 263.96 304.78C333.28 332.19 309.67 380.91 346.56 380.79C366.83 385.69 391.66 337.38 412.94 345.32C428.3 358.14 439.86 365.26 441.38 377.8C446.81 422.49 374.32 463.3 313.11 443.62C279.39 455.46 247.51 453.91 217.84 436.02" fill="white"/>
</mask>
<g mask="url(#mask7_1_1214)">
<path fill-rule="evenodd" clip-rule="evenodd" d="M324.27 410.36C340.23 410.36 353.17 423.43 353.17 439.55C353.17 455.67 340.23 468.74 324.27 468.74C308.31 468.74 295.37 455.67 295.37 439.55C295.37 423.43 308.31 410.36 324.27 410.36Z" fill="#808BEF"/>
</g>
<path fill-rule="evenodd" clip-rule="evenodd" d="M303.68 264.49C304.57 264.9 304.96 265.97 304.55 266.86L303.23 269.72C302.82 270.61 301.75 271.01 300.86 270.59C299.97 270.18 299.57 269.11 299.99 268.22L301.31 265.36C301.72 264.47 302.79 264.08 303.68 264.49Z" fill="#808BEF"/>
<path fill-rule="evenodd" clip-rule="evenodd" d="M308.46 267.26C309.47 267.73 309.92 268.94 309.45 269.95L307.95 273.2C307.48 274.21 306.27 274.66 305.26 274.19C304.25 273.72 303.8 272.51 304.27 271.5L305.77 268.25C306.24 267.24 307.45 266.79 308.46 267.26Z" fill="#808BEF"/>
<path fill-rule="evenodd" clip-rule="evenodd" d="M276.92 668.61L286.17 648.78L213.47 515.28C230.65 573.44 229.33 638.2 276.92 668.61Z" fill="#2B6E7E"/>
<path fill-rule="evenodd" clip-rule="evenodd" d="M297.11 448.37L313.93 442.59C280.26 439.43 272.93 381.92 266.35 339.49C269.38 379.56 266.58 411.93 297.11 448.37Z" fill="#E78F2B"/>
<path d="M200.42 831.92L200.39 831.87C198.46 828.06 196.63 823.59 194.79 819.09C189.6 806.44 184.28 793.48 177.04 795.3C166.92 804.92 167.53 812.12 172.69 817.62C178.84 824.17 191.21 828.66 200.42 831.92ZM201.82 828.62L217.44 806.78L217.5 806.71C221.76 801.53 226.01 801.68 229.38 804.44C231.09 805.85 232.52 807.97 233.53 810.39C234.52 812.76 235.13 815.45 235.24 818.05C235.49 824.21 232.95 829.88 226.09 830.22L202.94 835.42C202.67 835.5 202.38 835.5 202.09 835.4L200.16 834.71C190.64 831.33 177.46 826.66 170.71 819.48C164.44 812.81 163.55 804.25 175.41 793.1C175.56 792.96 175.74 792.85 175.95 792.79C185.7 789.81 191.57 804.11 197.29 818.06C198.79 821.72 200.28 825.35 201.82 828.61V828.62ZM219.63 808.38L202.71 832.05C202.55 832.27 202.34 832.43 202.11 832.52L202.65 832.71L225.61 827.56C225.7 827.54 225.78 827.53 225.87 827.53C230.88 827.32 232.72 822.94 232.53 818.17C232.44 815.9 231.9 813.53 231.02 811.44C230.17 809.4 229.01 807.65 227.65 806.54C225.47 804.75 222.63 804.77 219.62 808.39L219.63 808.38Z" fill="#621014"/>
<path d="M419.43 787.12L419.38 787.1C415.57 785.18 411.44 782.68 407.28 780.16C395.58 773.07 383.6 765.81 378.86 771.58C376.44 785.33 381.21 790.76 388.63 792.11C397.47 793.72 410.09 789.98 419.43 787.13M418.6 783.62L418.18 756.77V756.68C418.53 749.99 422.04 747.57 426.39 747.8C428.6 747.91 431.01 748.77 433.27 750.12C435.48 751.44 437.57 753.24 439.2 755.27C443.06 760.08 444.39 766.14 439.08 770.49L423.55 788.43C423.38 788.65 423.14 788.83 422.85 788.92L420.89 789.52C411.23 792.46 397.85 796.54 388.15 794.77C379.14 793.13 373.34 786.77 376.25 770.76C376.29 770.56 376.37 770.37 376.5 770.19C382.57 762 395.79 770.01 408.69 777.83C412.07 779.88 415.43 781.92 418.6 783.63V783.62ZM420.89 756.76L421.35 785.85C421.35 786.12 421.28 786.37 421.15 786.59L421.7 786.42L437.1 768.63C437.16 768.56 437.22 768.5 437.29 768.45C441.2 765.3 440.07 760.69 437.08 756.96C435.66 755.19 433.82 753.61 431.87 752.45C429.97 751.32 428 750.6 426.25 750.51C423.44 750.37 421.15 752.07 420.89 756.77V756.76Z" fill="#621014"/>
<path d="M265.4 223.91C265.69 223.22 266.49 222.9 267.17 223.19C267.86 223.48 268.18 224.27 267.89 224.96C261.92 239.04 253.7 253.68 242.27 265.05C230.77 276.49 216.05 284.62 197.17 285.57C196.42 285.61 195.79 285.03 195.75 284.28C195.72 283.53 196.29 282.9 197.04 282.86C215.16 281.95 229.3 274.13 240.36 263.12C251.5 252.04 259.54 237.71 265.39 223.9" fill="#621014"/>
<path d="M312.35 285.04C312.09 284.37 312.43 283.62 313.1 283.36C313.77 283.1 314.52 283.44 314.78 284.11C315.17 285.12 315.62 285.91 316.13 286.46C316.55 286.91 317.01 287.2 317.5 287.31C318.01 287.42 318.6 287.36 319.25 287.11C320.14 286.77 321.14 286.1 322.24 285.09C322.77 284.61 323.59 284.64 324.08 285.17C324.56 285.7 324.53 286.52 324 287.01C322.66 288.24 321.38 289.08 320.18 289.54C319.03 289.98 317.94 290.09 316.94 289.87C315.92 289.65 315 289.09 314.21 288.22C313.48 287.43 312.86 286.36 312.35 285.04Z" fill="#621014"/>
<path fill-rule="evenodd" clip-rule="evenodd" d="M400.28 349.88C401.46 336.2 395.04 326.57 377.98 314.91C356.19 324.03 328.83 355.96 298.93 328.59C324.6 400.04 355.35 402.07 400.28 349.87" fill="#BAC3FD"/>
<mask id="mask8_1_1214" style="mask-type:luminance" maskUnits="userSpaceOnUse" x="298" y="314" width="103" height="73">
<path d="M400.28 349.88C401.46 336.2 395.04 326.57 377.98 314.91C356.19 324.03 328.83 355.96 298.93 328.59C324.6 400.04 355.35 402.07 400.28 349.87" fill="white"/>
</mask>
<g mask="url(#mask8_1_1214)">
<path fill-rule="evenodd" clip-rule="evenodd" d="M301.81 387.89L401.81 345.68C367.8 332.29 326.81 365.62 302.63 319.45L301.81 387.89Z" fill="#E78F2B"/>
</g>
<path fill-rule="evenodd" clip-rule="evenodd" d="M382.43 321.61C389.65 329.18 395.95 336.73 399.19 346.02L408.7 340.09C405.25 330.47 399.93 321.68 391.77 313.92L382.43 321.61Z" fill="#621014"/>
<path fill-rule="evenodd" clip-rule="evenodd" d="M186.63 710.47C273.84 740.81 343.56 460.73 400.78 608.94C419.02 656.18 363.12 707.54 287.01 728.24C226.37 744.73 69.99 732.05 64.81 656.8C65.38 642.08 77.75 650.18 96.07 666.85C79.49 643.54 67 621.54 68.04 612.13C81.04 582.15 99.42 680.14 186.63 710.48" fill="#808BEF"/>
<path d="M72.09 649.41C73.92 649.84 75.05 651.66 74.63 653.49C74.2 655.32 72.38 656.45 70.55 656.03C60.59 653.71 50.82 653.66 42.81 656.07C38.31 657.42 34.39 659.55 31.36 662.49C28.37 665.38 26.2 669.1 25.14 673.68C23.82 679.37 24.17 686.42 26.73 694.9C28.65 701.28 34.75 709.74 44.04 718.71C59.8 733.94 84.41 750.26 113.21 760.34C141.91 770.38 174.73 774.19 207.02 764.48C228.25 758.09 249.29 745.83 268.82 725.63C312.65 680.28 351.26 645.47 386.41 619.79C421.73 593.99 453.63 577.36 483.86 568.51L622.8 527.83C681.31 510.7 701.35 475.48 717.68 446.79C732.96 419.94 745.17 398.49 780.65 400.42C809.85 402 864.77 401.96 912.85 395.55C945 391.27 973.98 384.18 989.79 372.91C1008.17 359.8 1016.14 346.06 1016.9 334.81C1017.21 330.22 1016.31 326.08 1014.42 322.63C1012.55 319.19 1009.69 316.39 1006.08 314.47C998.36 310.35 987.19 310.17 974.62 316.1C957.96 323.96 937.3 330.33 917.62 335.31C898.11 340.25 879.42 343.87 866.66 346.24C864.82 346.58 863.05 345.36 862.72 343.52C862.38 341.68 863.6 339.91 865.44 339.58C878.03 337.24 896.48 333.67 915.98 328.73C935.31 323.83 955.54 317.61 971.73 309.97C986.4 303.04 999.78 303.43 1009.27 308.5C1014.06 311.06 1017.86 314.8 1020.37 319.4C1022.87 323.98 1024.07 329.38 1023.67 335.28C1022.78 348.35 1013.96 364.01 993.71 378.45C976.89 390.44 946.85 397.88 913.72 402.29C865.17 408.75 809.76 408.81 780.3 407.21C748.99 405.51 737.7 425.34 723.58 450.16C706.64 479.92 685.85 516.45 624.69 534.36L485.75 575.04C456.3 583.66 425.11 599.95 390.43 625.28C355.58 650.74 317.26 685.3 273.72 730.35C253.31 751.47 231.26 764.3 208.98 771.01C175.17 781.19 140.9 777.23 111 766.77C81.2 756.34 55.71 739.43 39.36 723.63C29.23 713.85 22.5 704.34 20.25 696.87C17.34 687.19 16.97 678.97 18.56 672.17C19.93 666.26 22.76 661.44 26.67 657.66C30.53 653.93 35.4 651.25 40.91 649.59C50.05 646.84 61.04 646.86 72.13 649.44" fill="#BAC3FD"/>
<path fill-rule="evenodd" clip-rule="evenodd" d="M997.38 644.74L1039.04 605.9C1059.64 613.06 1075.66 624.97 1087.87 640.82C1058.14 677.43 1032.06 721.36 992.87 747.87C938.46 713.35 995.69 683.59 996.29 669.84L997.39 644.74H997.38Z" fill="#808BEF"/>
<mask id="mask9_1_1214" style="mask-type:luminance" maskUnits="userSpaceOnUse" x="969" y="605" width="119" height="143">
<path d="M997.38 644.74L1039.04 605.9C1059.64 613.06 1075.66 624.97 1087.87 640.82C1058.14 677.43 1032.06 721.36 992.87 747.87C938.46 713.35 995.69 683.59 996.29 669.84L997.39 644.74H997.38Z" fill="white"/>
</mask>
<g mask="url(#mask9_1_1214)">
<path d="M1079.6 631.29C1052.96 672.87 1020.04 713.67 983.35 743.79" stroke="#F3EFEC" stroke-width="5.67" stroke-miterlimit="22.93" stroke-linecap="round"/>
<path fill-rule="evenodd" clip-rule="evenodd" d="M971.35 678.27C974.44 675.7 979.06 676.12 981.64 679.2L990.1 689.35C992.67 692.44 992.25 697.06 989.17 699.64C986.08 702.21 981.46 701.79 978.88 698.71L970.42 688.56C967.85 685.47 968.27 680.85 971.35 678.27Z" fill="#E78F2B"/>
<path fill-rule="evenodd" clip-rule="evenodd" d="M986.47 664.06C989.56 661.49 994.18 661.91 996.76 664.99L1005.22 675.14C1007.79 678.23 1007.37 682.85 1004.29 685.43C1001.2 688 996.58 687.58 994 684.5L985.54 674.35C982.97 671.26 983.39 666.64 986.47 664.06Z" fill="#E78F2B"/>
</g>
<path fill-rule="evenodd" clip-rule="evenodd" d="M612.94 296.84C661.73 374.99 717.93 361.59 755.98 317.69L722.58 301.09C687.67 326.72 654.86 313.17 622.87 284.24C620.45 275.17 612.38 262.97 605.77 256.02C592.73 243.23 586.66 253.38 603.35 270.92C587.89 268.41 580.21 256.46 570.38 245.35C561.45 251.99 574.22 261.4 579.37 267.37L566.8 254.78C564.93 253.74 562.89 257.66 571.73 271.48C575.19 276.89 565.29 261 562.69 267.41C569.01 291.92 588.81 298.94 612.95 296.84" fill="#FF8F69"/>
<path fill-rule="evenodd" clip-rule="evenodd" d="M1001.09 646.12L1037.52 610.73L906.92 432.71L853.07 486.92L1001.09 646.12Z" fill="#FF8F69"/>
<path fill-rule="evenodd" clip-rule="evenodd" d="M783.64 698.85L830.12 700.3L849.86 469.49L769.71 464.3L783.64 698.85Z" fill="#FF8F69"/>
<path fill-rule="evenodd" clip-rule="evenodd" d="M780.96 311.25L842.21 309.63C835.93 337.1 801.48 344.47 776.54 358.57L780.97 311.25H780.96Z" fill="#1C1C1B"/>
<path fill-rule="evenodd" clip-rule="evenodd" d="M779.12 340.69L779.27 340.62C779.32 339.89 779.36 339.16 779.39 338.45L780.17 340.18L842.86 309.65L911.56 425.96L926.34 433.49C917.72 457.85 889.21 491.92 861.2 496.37C857.76 496.92 854.31 497.2 850.9 497.02L853.69 503.2L756.62 499.19C737.69 498.41 775.55 397.59 779.24 341.07L779.12 340.69Z" fill="#3A3937"/>
<path fill-rule="evenodd" clip-rule="evenodd" d="M850.09 301.19C839 247.46 806.06 215.13 763 192.71C723.9 226.67 730.52 255.43 726.53 273.89C724.78 282 720.97 288.13 710.34 291.84L762.76 340C798.49 339.97 828.06 327.91 850.09 301.19Z" fill="#7C99B4"/>
<path fill-rule="evenodd" clip-rule="evenodd" d="M712.17 167.9C711.47 168.58 711.45 169.72 712.13 170.43L714.33 172.69C715.01 173.4 716.15 173.41 716.86 172.73C717.56 172.05 717.58 170.91 716.9 170.2L714.7 167.94C714.02 167.24 712.88 167.22 712.17 167.9Z" fill="#808BEF"/>
<path fill-rule="evenodd" clip-rule="evenodd" d="M708.58 172.1C707.78 172.88 707.76 174.17 708.54 174.96L711.03 177.53C711.81 178.33 713.1 178.35 713.9 177.57C714.7 176.79 714.72 175.5 713.94 174.71L711.45 172.15C710.67 171.35 709.38 171.33 708.59 172.11" fill="#808BEF"/>
<path fill-rule="evenodd" clip-rule="evenodd" d="M779.44 339.16L761.65 339.3C792.36 325.14 780.17 268.46 772.29 226.25C782.74 265.05 796.13 294.65 779.44 339.16Z" fill="#454F85"/>
<mask id="mask10_1_1214" style="mask-type:luminance" maskUnits="userSpaceOnUse" x="562" y="245" width="194" height="109">
<path d="M612.94 296.84C661.73 374.99 717.93 361.59 755.98 317.69L722.58 301.09C687.67 326.72 654.86 313.17 622.87 284.24C620.45 275.17 612.38 262.97 605.77 256.02C592.73 243.23 586.66 253.38 603.35 270.92C587.89 268.41 580.21 256.46 570.38 245.35C561.45 251.99 574.22 261.4 579.37 267.37L566.8 254.78C564.93 253.74 562.89 257.66 571.73 271.48C575.19 276.89 565.29 261 562.69 267.41C569.01 291.92 588.81 298.94 612.95 296.84" fill="white"/>
</mask>
<g mask="url(#mask10_1_1214)">
<path fill-rule="evenodd" clip-rule="evenodd" d="M692.35 331.35C703.62 331.35 712.76 340.72 712.76 352.28C712.76 363.84 703.62 373.21 692.35 373.21C681.08 373.21 671.94 363.84 671.94 352.28C671.94 340.72 681.08 331.35 692.35 331.35Z" fill="#808BEF"/>
</g>
<mask id="mask11_1_1214" style="mask-type:luminance" maskUnits="userSpaceOnUse" x="853" y="432" width="185" height="215">
<path d="M1001.09 646.12L1037.52 610.73L906.92 432.71L853.07 486.92L1001.09 646.12Z" fill="white"/>
</mask>
<g mask="url(#mask11_1_1214)">
<path fill-rule="evenodd" clip-rule="evenodd" d="M1001.09 646.12L1037.52 610.73L995.59 553.58C984.57 576.31 968.93 587.51 950.49 591.7L1001.09 646.12Z" fill="#BAC3FD"/>
<path fill-rule="evenodd" clip-rule="evenodd" d="M892.68 504.06C906.49 504.06 917.68 515.54 917.68 529.7C917.68 543.86 906.49 555.34 892.68 555.34C878.87 555.34 867.68 543.86 867.68 529.7C867.68 515.54 878.87 504.06 892.68 504.06Z" fill="#808BEF"/>
</g>
<mask id="mask12_1_1214" style="mask-type:luminance" maskUnits="userSpaceOnUse" x="769" y="464" width="81" height="237">
<path d="M783.64 698.85L830.12 700.3L849.86 469.49L769.71 464.3L783.64 698.85Z" fill="white"/>
</mask>
<g mask="url(#mask12_1_1214)">
<path fill-rule="evenodd" clip-rule="evenodd" d="M783.64 698.85L830.13 700.31L835.94 632.32C817.11 638.08 798.27 637.17 779.44 628.1L783.64 698.86V698.85Z" fill="#BAC3FD"/>
<path fill-rule="evenodd" clip-rule="evenodd" d="M772.3 541.74C786.11 541.74 797.3 553.22 797.3 567.38C797.3 581.54 786.11 593.02 772.3 593.02C758.49 593.02 747.3 581.54 747.3 567.38C747.3 553.22 758.49 541.74 772.3 541.74Z" fill="#808BEF"/>
</g>
<path fill-rule="evenodd" clip-rule="evenodd" d="M687.25 157.61C727.16 102.76 727.2 164.06 739.07 178.02C739.07 178.02 705.38 225.9 691.86 193.59C672.75 186.39 695.52 183.63 687.25 157.61Z" fill="#FF8F69"/>
<mask id="mask13_1_1214" style="mask-type:luminance" maskUnits="userSpaceOnUse" x="683" y="135" width="57" height="70">
<path d="M687.25 157.61C727.16 102.76 727.2 164.06 739.07 178.02C739.07 178.02 705.38 225.9 691.86 193.59C672.75 186.39 695.52 183.63 687.25 157.61Z" fill="white"/>
</mask>
<g mask="url(#mask13_1_1214)">
<path fill-rule="evenodd" clip-rule="evenodd" d="M705.05 189.46L690.88 200.36C699.7 206.4 709.2 201.55 711.08 194.38C713.06 186.81 709.77 185.83 705.05 189.46Z" fill="#F3EFEC"/>
<path fill-rule="evenodd" clip-rule="evenodd" d="M724.29 173.43C716.94 176.02 713.17 184.35 715.88 192.03C718.59 199.72 726.74 203.85 734.09 201.26C741.44 198.67 745.21 190.34 742.5 182.66C739.79 174.97 731.64 170.84 724.29 173.43Z" fill="#BAC3FD"/>
</g>
<path fill-rule="evenodd" clip-rule="evenodd" d="M741.19 175.1L719.99 198.73L733.41 224.63C750.6 239.87 752.73 209.25 764.8 200.6L741.19 175.11V175.1Z" fill="#FF8F69"/>
<mask id="mask14_1_1214" style="mask-type:luminance" maskUnits="userSpaceOnUse" x="719" y="175" width="46" height="54">
<path d="M741.19 175.1L719.99 198.73L733.41 224.63C750.6 239.87 752.73 209.25 764.8 200.6L741.19 175.11V175.1Z" fill="white"/>
</mask>
<g mask="url(#mask14_1_1214)">
<path fill-rule="evenodd" clip-rule="evenodd" d="M713.93 189.49L736.03 178.23L725.78 208.34L713.93 189.49Z" fill="#7D9FFC"/>
</g>
<path fill-rule="evenodd" clip-rule="evenodd" d="M688.23 157.92C695.14 148.94 708.76 135.06 712.46 144.2C735.12 200.16 737.54 178.26 760.55 197.06C790.41 196.33 780.93 168.33 765.99 162.24C781.49 163.86 797.38 151.92 799.74 139.84C802.95 123.48 783.57 107.65 764.79 116.51C744.58 126.05 748.19 122.19 724.52 112.19C681.37 105.75 694.85 138.6 664.67 149.98C661.01 163.98 677.56 168.85 688.22 157.93" fill="#3A3937"/>
<path fill-rule="evenodd" clip-rule="evenodd" d="M708.1 247.37C707.37 244.27 729.24 235.22 737.01 220.7C736.78 256.03 722.42 308.45 718.82 293.08L708.1 247.37Z" fill="#7C99B4"/>
<mask id="mask15_1_1214" style="mask-type:luminance" maskUnits="userSpaceOnUse" x="708" y="220" width="30" height="76">
<path d="M708.1 247.37C707.37 244.27 729.24 235.22 737.01 220.7C736.78 256.03 722.42 308.45 718.82 293.08L708.1 247.37Z" fill="white"/>
</mask>
<g mask="url(#mask15_1_1214)">
<path fill-rule="evenodd" clip-rule="evenodd" d="M754.91 283.67L724.81 297.56L707.19 276.33C718.03 256.42 719.55 250.88 735.79 220.84L754.91 283.66V283.67Z" fill="#454F85"/>
</g>
<path fill-rule="evenodd" clip-rule="evenodd" d="M917.82 444.13L928.36 463.29L865.14 496.81L917.82 444.13Z" fill="#7D9FFC"/>
<path fill-rule="evenodd" clip-rule="evenodd" d="M772.24 497.77V511.18L848.86 501.6L772.24 497.77Z" fill="#7D9FFC"/>
<mask id="mask16_1_1214" style="mask-type:luminance" maskUnits="userSpaceOnUse" x="751" y="309" width="176" height="195">
<path d="M779.12 340.69L779.27 340.62C779.32 339.89 779.36 339.16 779.39 338.45L780.17 340.18L842.86 309.65L911.56 425.96L926.34 433.49C917.72 457.85 889.21 491.92 861.2 496.37C857.76 496.92 854.31 497.2 850.9 497.02L853.69 503.2L756.62 499.19C737.69 498.41 775.55 397.59 779.24 341.07L779.12 340.69Z" fill="white"/>
</mask>
<g mask="url(#mask16_1_1214)">
<path fill-rule="evenodd" clip-rule="evenodd" d="M844.62 532.83C851.69 472.14 880.9 396.69 865.82 350.77C912.82 401.24 872.5 431.51 844.62 532.83Z" fill="#1C1C1B"/>
</g>
<path fill-rule="evenodd" clip-rule="evenodd" d="M778.66 695.75L835.57 698.19C844.92 717.9 853.72 735 850.99 754.82C804.04 759.32 748.4 774.22 702.01 764.89C688.44 701.9 749.79 721.8 760.01 712.58L778.67 695.76L778.66 695.75Z" fill="#808BEF"/>
<mask id="mask17_1_1214" style="mask-type:luminance" maskUnits="userSpaceOnUse" x="700" y="695" width="152" height="73">
<path d="M778.66 695.75L835.57 698.19C844.92 717.9 853.72 735 850.99 754.82C804.04 759.32 748.4 774.22 702.01 764.89C688.44 701.9 749.79 721.8 760.01 712.58L778.67 695.76L778.66 695.75Z" fill="white"/>
</mask>
<g mask="url(#mask17_1_1214)">
<path d="M852.58 741.07C802.59 748.16 749.06 758 701.08 751.63" stroke="#F3EFEC" stroke-width="5.67" stroke-miterlimit="22.93" stroke-linecap="round"/>
<path fill-rule="evenodd" clip-rule="evenodd" d="M736.03 706.26C739.91 705.21 743.94 707.52 744.99 711.4L748.45 724.16C749.5 728.04 747.19 732.07 743.31 733.12C739.43 734.17 735.4 731.86 734.35 727.98L730.89 715.22C729.84 711.34 732.15 707.31 736.03 706.26Z" fill="#E78F2B"/>
<path fill-rule="evenodd" clip-rule="evenodd" d="M755.69 699.65C759.57 698.6 763.6 700.91 764.65 704.79L768.11 717.55C769.16 721.43 766.85 725.46 762.97 726.51C759.09 727.56 755.06 725.25 754.01 721.37L750.55 708.61C749.5 704.73 751.81 700.7 755.69 699.65Z" fill="#E78F2B"/>
</g>
<path fill-rule="evenodd" clip-rule="evenodd" d="M697.14 162.76C696.19 163.1 695.68 164.15 696.02 165.11L697.36 168.93C697.7 169.88 698.75 170.39 699.71 170.05C700.66 169.71 701.17 168.66 700.83 167.7L699.49 163.88C699.15 162.93 698.1 162.42 697.14 162.76Z" fill="#621014"/>
<path fill-rule="evenodd" clip-rule="evenodd" d="M704.9 155C707.03 159.51 697.74 157.48 695.28 162.23C693.25 166.15 686.1 151.97 704.9 155Z" fill="#621014"/>
<path fill-rule="evenodd" clip-rule="evenodd" d="M782.13 358.38C745.99 352.09 697.1 372.34 677.68 399.6C640.43 451.9 712.7 508.35 750.74 455.97C801.71 385.78 994.67 509.15 997.13 348.51C997.49 325.15 966.45 314.3 955.67 358.7C936.63 437.1 798.22 361.17 782.14 358.38" fill="#808BEF"/>
<path fill-rule="evenodd" clip-rule="evenodd" d="M948.47 350.5C951.67 369.01 945.04 382.18 926.66 388.97C926.66 388.97 904.06 374.23 916.65 340.82C909.23 318.1 912.54 299.2 921.85 282.44C922.57 259.96 935.48 246.35 958.61 240.19C932.69 253.15 966.3 268.78 947.76 280.22C962.83 306.24 961.31 329.36 948.46 350.51" fill="#E0ECFE"/>
<path d="M924.88 369.2L917.11 352.75C916.91 352.32 917.09 351.8 917.53 351.59C917.96 351.39 918.48 351.57 918.69 352.01L924.73 364.79C924.41 354.18 924.56 343.55 925.24 332.9L918.54 321.82C918.29 321.41 918.42 320.87 918.84 320.62C919.25 320.37 919.79 320.5 920.04 320.92L925.45 329.88C925.62 327.63 925.81 325.38 926.02 323.13C926.69 316.14 927.6 309.15 928.78 302.15L922.2 291.26C921.95 290.85 922.08 290.31 922.5 290.06C922.91 289.81 923.45 289.94 923.7 290.36L929.24 299.53C929.88 295.93 930.58 292.33 931.36 288.72C931.36 288.59 931.39 288.45 931.44 288.33C933.8 277.46 936.83 266.57 940.58 255.65C940.74 255.2 941.23 254.95 941.69 255.11C942.14 255.27 942.39 255.76 942.23 256.22C938.9 265.91 936.14 275.58 933.92 285.23L939.9 277.83C940.2 277.46 940.75 277.4 941.12 277.7C941.49 278 941.55 278.55 941.25 278.92L933.06 289.06C932.14 293.32 931.32 297.57 930.6 301.82C930.76 302.16 930.69 302.56 930.43 302.82C929.7 307.19 929.08 311.55 928.55 315.91L939.44 305.04C939.78 304.7 940.33 304.7 940.67 305.04C941.01 305.38 941.01 305.93 940.67 306.27L928.23 318.69C928.06 320.23 927.9 321.77 927.75 323.31C927.45 326.39 927.21 329.47 927 332.54C927.05 332.72 927.03 332.91 926.97 333.07C926.67 337.71 926.48 342.34 926.38 346.97L937.77 335.6C938.11 335.26 938.66 335.26 939 335.6C939.34 335.94 939.34 336.49 939 336.83L926.34 349.47C926.15 362.96 926.78 376.42 928.08 389.85C928.13 390.33 927.77 390.75 927.3 390.8C926.82 390.84 926.4 390.49 926.35 390.02C925.68 383.09 925.19 376.15 924.9 369.21" fill="#002F40"/>
<path fill-rule="evenodd" clip-rule="evenodd" d="M116.17 665.38C123.19 697.13 142.46 713.86 176.34 712.67C176.34 712.67 202.86 674.23 160.76 629C157.73 587.74 140.02 559.64 114.11 538.92C98.2 503.39 68.59 490.08 27.49 495.38C77.5 499.12 33.94 546.22 71.15 552.36C64.1 603.93 81.71 639.96 116.17 665.39" fill="#E0ECFE"/>
<path d="M163.75 673.65L165.08 648.26C165.12 647.54 165.73 646.99 166.45 647.02C167.17 647.06 167.72 647.67 167.69 648.39L166.04 679.87C170.13 691.2 173.9 702.64 177.39 714.19C177.6 714.88 177.2 715.61 176.51 715.81C175.82 716.02 175.09 715.62 174.89 714.93C168.14 692.53 160.29 670.53 151.12 649.02L151 648.98L122.47 637.08C121.8 636.8 121.49 636.04 121.77 635.37C122.05 634.7 122.81 634.39 123.48 634.67L149.65 645.59C146.39 638.07 142.96 630.61 139.35 623.21C139.15 623.01 139.02 622.75 138.99 622.47C136.64 617.66 134.21 612.88 131.71 608.13C130.45 605.74 129.17 603.35 127.87 600.98L99.73 589.24C99.06 588.96 98.75 588.2 99.03 587.53C99.31 586.86 100.07 586.55 100.74 586.83L125.85 597.31C122.04 590.48 118.07 583.71 113.92 577C113.37 576.8 113.01 576.24 113.07 575.64C109.1 569.27 104.98 562.97 100.69 556.72L80.88 545.84C80.25 545.49 80.02 544.7 80.36 544.07C80.71 543.44 81.5 543.21 82.13 543.55L97.34 551.9C87.3 537.65 76.38 523.73 64.47 510.17C64 509.63 64.05 508.81 64.59 508.33C65.13 507.86 65.95 507.91 66.43 508.45C79.61 523.47 91.6 538.93 102.52 554.78C102.69 554.93 102.82 555.12 102.89 555.32C106.61 560.74 110.21 566.2 113.68 571.7L116.61 552.85C116.72 552.14 117.39 551.65 118.1 551.76C118.81 551.87 119.3 552.54 119.19 553.25L115.79 575.08C122.28 585.54 128.35 596.16 134.02 606.93C135.94 610.58 137.82 614.24 139.65 617.92L142.53 599.39C142.64 598.68 143.31 598.19 144.02 598.3C144.73 598.41 145.22 599.08 145.11 599.79L141.65 621.99C149.89 638.9 157.23 656.14 163.77 673.67" fill="#002F40"/>
<path d="M524.45 399.78C522.53 399.95 520.84 398.52 520.68 396.61C520.51 394.69 521.94 393 523.85 392.84C541.54 391.27 555.89 387.69 568.78 381.25C581.69 374.8 593.24 365.45 605.33 352.36C606.63 350.95 608.83 350.85 610.25 352.16C611.66 353.46 611.76 355.66 610.45 357.08C597.77 370.81 585.59 380.65 571.88 387.5C558.16 394.35 543.02 398.15 524.45 399.8" fill="#621014"/>
<path d="M486.21 396.61C484.33 396.23 483.11 394.4 483.49 392.52C483.87 390.64 485.7 389.42 487.58 389.8C490.06 390.3 492.7 390.8 495.49 391.29C498.13 391.75 500.64 392.15 503.02 392.49C504.92 392.75 506.25 394.51 505.99 396.41C505.73 398.31 503.97 399.64 502.07 399.38C499.47 399.01 496.89 398.6 494.32 398.16C491.9 397.74 489.2 397.22 486.22 396.62" fill="#621014"/>
<path d="M520.42 305.69C512.52 306.73 504.95 306.21 497.71 304.13C490.47 302.05 483.96 298.75 478.18 294.23C472.4 289.71 467.58 284.22 463.74 277.77C459.9 271.31 457.47 264.23 456.45 256.51C455.43 248.79 455.94 241.32 457.98 234.08C460.02 226.85 463.24 220.3 467.66 214.43C472.08 208.57 477.51 203.69 483.96 199.8C490.41 195.91 497.59 193.45 505.49 192.4C512.66 191.45 519.72 191.86 526.68 193.6C533.64 195.35 540.25 198.33 546.51 202.55L527 224.75C521.17 221.69 515.32 220.54 509.44 221.32C505.58 221.83 502.09 223.04 498.98 224.94C495.87 226.85 493.28 229.24 491.23 232.13C489.18 235.02 487.69 238.23 486.75 241.76C485.81 245.3 485.59 248.9 486.07 252.58C486.57 256.35 487.73 259.82 489.55 262.99C491.37 266.16 493.64 268.85 496.36 271.06C499.08 273.27 502.17 274.92 505.64 276.01C509.1 277.1 512.76 277.38 516.62 276.88C521.03 276.3 525.01 274.75 528.55 272.22C532.1 269.7 535.05 266.41 537.42 262.36L562.6 277.83C557.82 285.56 551.81 291.85 544.54 296.69C537.28 301.53 529.24 304.53 520.42 305.69Z" fill="#BAC3FD"/>
<path d="M581.63 179.58C563.28 161.39 537.93 150.13 509.93 150.13C481.93 150.13 456.58 161.38 438.23 179.58C419.88 197.77 408.54 222.91 408.54 250.67C408.54 278.43 419.89 303.57 438.23 321.76C456.58 339.95 481.93 351.21 509.93 351.21C537.93 351.21 563.28 339.96 581.63 321.76C599.98 303.57 611.32 278.43 611.32 250.67C611.32 222.91 599.97 197.77 581.63 179.58ZM509.93 148.09C538.49 148.09 564.34 159.57 583.06 178.13C601.78 196.69 613.36 222.34 613.36 250.66C613.36 278.98 601.78 304.63 583.06 323.19C564.34 341.75 538.48 353.23 509.93 353.23C481.38 353.23 455.52 341.75 436.8 323.19C418.08 304.63 406.5 278.98 406.5 250.66C406.5 222.34 418.08 196.69 436.8 178.13C455.52 159.57 481.38 148.09 509.93 148.09Z" fill="#BAC3FD"/>
<path fill-rule="evenodd" clip-rule="evenodd" d="M76.38 646.06C70.15 641.86 61.71 643.51 57.51 649.73C53.31 655.95 54.96 664.4 61.18 668.6C67.41 672.8 75.85 671.15 80.05 664.93C84.25 658.71 82.6 650.26 76.38 646.06Z" fill="#6FA1B6"/>
<path fill-rule="evenodd" clip-rule="evenodd" d="M48.88 635.57C45.24 633.11 40.29 634.08 37.84 637.72C35.38 641.36 36.35 646.31 39.99 648.76C43.63 651.22 48.58 650.25 51.03 646.61C53.49 642.97 52.52 638.02 48.88 635.57Z" fill="#6FA1B6"/>
<path fill-rule="evenodd" clip-rule="evenodd" d="M55.5 606.13C54.25 605.29 52.55 605.62 51.71 606.87C50.87 608.12 51.2 609.82 52.45 610.66C53.7 611.5 55.4 611.17 56.24 609.92C57.08 608.67 56.75 606.97 55.5 606.13Z" fill="#6FA1B6"/>
<path fill-rule="evenodd" clip-rule="evenodd" d="M997.31 296.76C996.06 295.92 994.36 296.25 993.52 297.5C992.68 298.75 993.01 300.45 994.26 301.29C995.51 302.13 997.21 301.8 998.05 300.55C998.89 299.3 998.56 297.6 997.31 296.76Z" fill="#6FA1B6"/>
<path fill-rule="evenodd" clip-rule="evenodd" d="M990.69 326.2C987.05 323.74 982.1 324.71 979.65 328.35C977.19 331.99 978.16 336.94 981.8 339.39C985.44 341.85 990.39 340.88 992.84 337.24C995.3 333.6 994.33 328.65 990.69 326.2Z" fill="#6FA1B6"/>
<path fill-rule="evenodd" clip-rule="evenodd" d="M1018.18 336.69C1011.95 332.49 1003.51 334.14 999.31 340.36C995.11 346.58 996.76 355.03 1002.98 359.23C1009.21 363.43 1017.65 361.78 1021.85 355.56C1026.05 349.34 1024.4 340.89 1018.18 336.69Z" fill="#6FA1B6"/>
</g>
<defs>
<clipPath id="clip0_1_1214">
<rect width="1087.87" height="904.76" fill="white"/>
</clipPath>
</defs>
</svg>
